<svg width="279" height="250" fill="none" xmlns="http://www.w3.org/2000/svg"><path d="M276.374 129.402c-5.926-.389-11.628-2.845-17.538-4.213-5.718-1.324-11.587-1.994-17.305-2.782-10.761-1.482-21.598-3.71-32.374-5.415-21.45-3.394-42.396-1.346-63.054.404-17.535 1.486-33.172 7.417-49.834 11.404-17.608 4.213-35.359 12.959-54.71 10.384-6.814-.907-14.775-.747-20.83-6.226-3.51-3.175-5.8-7.948-8.244-12.015-1.218-2.027-3.283-4.009-.943-5.035 1.935-.849 4.895.312 6.914 1.165.034.014-2.822-1.126-3.913-1.397-1.153-.286-2.978.178-3.893.727-4.008 2.409-.749 8.491-3.486 11.526" stroke="#FF6E31" stroke-width="3" stroke-linecap="round"/></svg>