<svg width="40" height="142" fill="none" xmlns="http://www.w3.org/2000/svg"><path d="M38 140c-1.214-1.509-1.873-3.423-2.503-5.389-1.259-3.925-2.17-8.033-3.097-12.092-2.46-10.761-5.023-21.41-7.82-32.044-2.32-8.824-4.372-17.75-6.722-26.56-2.607-9.771-5.105-19.587-7.135-29.573-2.081-10.236-3.44-21.23-2.917-31.852.085-1.71 3.761 2.355 4.065 2.694 1.003 1.12 1.965 2.309 3.032 3.336.056.054 1.007.991 1.007.77 0-1.983-2.022-3.468-2.981-4.78-.121-.165-1.211-.755-1.406-.769-.71-.052-1.316-.554-1.962-.577-.81-.03-.903-.218-1.548-.562-.474-.252-.84-.775-1.394-.545-1.387.575-2.081 2.709-2.76 4.122C3.226 7.49 2.548 8.726 2 10.092" stroke="#FF6E31" stroke-width="3" stroke-linecap="round"/></svg>