<svg width="376" height="383" fill="none" xmlns="http://www.w3.org/2000/svg"><path d="M373.337 299.507c-5.951-.531-11.457-3.177-17.005-5.998-11.077-5.632-21.728-12.439-32.318-19.101-28.07-17.66-56.153-34.847-84.741-51.483-23.72-13.802-47.035-28.423-70.797-42.128-26.357-15.202-52.554-30.741-78.022-47.696-26.103-17.378-52.108-38.006-72.977-62.043-3.359-3.869 13.614-3.347 15.023-3.297 4.654.165 9.353.57 13.963.394.24-.01 4.393-.12 3.934-.595-4.124-4.27-11.895-2.941-16.845-3.618-.625-.085-4.379 1.085-4.86 1.491-1.754 1.477-4.2 1.752-5.747 3.147-1.938 1.749-2.545 1.553-4.756 2.258-1.624.517-3.556.21-4.364 1.945-2.02 4.342.806 10.49 2.17 15.054 1.264 4.236 2.261 8.412 3.828 12.584" stroke="#FF6E31" stroke-width="3" stroke-linecap="round"/></svg>