<svg width="217" height="405" fill="none" xmlns="http://www.w3.org/2000/svg"><path d="M1.889 403.287c37.633-13.606 77.576-25.228 113.235-40.692 20.08-8.708 43.789-13.647 61.96-24.219 19.136-11.133 29.657-24.112 33.397-41.705 1.564-7.358 4.011-14.784 4.384-22.363.437-8.86-3.917-17.894-6.283-26.844-5.258-19.881-20.406-37.738-34.277-56.555-27.529-37.347-69.729-71.881-90.323-110.924-8.892-16.858-13.986-33.267-18.368-50.262-1.975-7.659-3.846-17.486-2.286-24.83.855-4.021 11.4 7.12 13.035 8.537 2.464 2.136 15.585 10.038 12.658 7.699-6.112-4.885-11.37-7.876-18.331-11.817-2.982-1.689-9.72-6.492-12.6-7.105C46.412-.275 46.845 16.311 39.162 17.053" stroke="#FF6E31" stroke-width="3" stroke-linecap="round"/></svg>