<svg width="180" height="308" fill="none" xmlns="http://www.w3.org/2000/svg"><path d="M178.453 305.508c-3.336-2.76-6.127-6.815-8.918-11.007-5.573-8.371-10.741-17.389-15.894-26.282-13.658-23.571-27.388-46.819-41.483-69.885-11.695-19.138-23.046-38.684-34.778-57.771-13.014-21.172-25.89-42.514-38.154-64.55-12.57-22.585-24.64-47.392-33.3-72.51C4.53-.542 14.18 6.64 14.98 7.241c2.642 1.984 5.278 4.155 7.942 5.884.139.09 2.533 1.681 2.334 1.165-1.776-4.629-6.409-6.826-9.151-9.285-.346-.31-2.656-1.004-2.988-.915-1.206.324-2.645-.467-3.721-.117-1.35.439-1.67.058-3.033-.34-1-.291-2.065-1.282-2.765-.398-1.751 2.211-.974 7.627-.819 11.352.145 3.457.145 6.765.47 10.298" stroke="#FF6E31" stroke-width="3" stroke-linecap="round"/></svg>