<svg width="33" height="113" fill="none" xmlns="http://www.w3.org/2000/svg"><path d="M31 111c-.978-1.192-1.509-2.704-2.017-4.256-1.013-3.1-1.747-6.345-2.494-9.552-1.981-8.499-4.047-16.91-6.299-25.31-1.869-6.969-3.522-14.02-5.415-20.978-2.1-7.718-4.113-15.47-5.748-23.359C7.35 19.46 6.256 10.777 6.677 2.387c.068-1.35 3.03 1.86 3.275 2.128.808.885 1.582 1.823 2.442 2.635.045.042.811.783.811.608 0-1.567-1.628-2.739-2.401-3.775-.098-.13-.976-.597-1.133-.608-.572-.04-1.06-.437-1.58-.456-.652-.023-.727-.172-1.247-.443-.382-.2-.676-.612-1.123-.431-1.117.454-1.677 2.14-2.224 3.256C2.989 6.337 2.443 7.312 2 8.39" stroke="#FF6E31" stroke-width="3" stroke-linecap="round"/></svg>