<svg width="171" height="239" fill="none" xmlns="http://www.w3.org/2000/svg"><path d="M168.426 204.479c-3.23-1.14-5.801-3.364-8.361-5.688-5.111-4.642-9.757-9.859-14.396-14.99-12.296-13.599-24.691-26.944-37.477-40.062-10.608-10.884-20.83-22.154-31.48-32.992-11.814-12.02-23.472-24.2-34.448-37.046-11.25-13.165-21.813-28.08-28.838-44.108-1.131-2.58 8.274.132 9.054.36 2.574.756 5.128 1.649 7.744 2.213.136.03 2.484.564 2.319.24-1.481-2.907-6.092-3.298-8.733-4.374-.334-.136-2.663-.038-3.012.113-1.268.551-2.692.35-3.829.886-1.425.671-1.727.478-3.102.544-1.01.048-2.032-.395-2.821.43-1.974 2.067-1.584 5.808-1.706 8.48-.114 2.479-.365 4.887-.297 7.375" stroke="#FF6E31" stroke-width="3" stroke-linecap="round"/></svg>