<svg width="35" height="35" fill="none" xmlns="http://www.w3.org/2000/svg"><path d="M5.127 35h11.416V22.559h-4.102v-4.102h4.102V13.33c0-2.827 2.3-5.127 5.127-5.127h5.127v4.102h-4.102c-1.13 0-2.05.92-2.05 2.05v4.102h5.967l-.684 4.102h-5.284V35h9.229C32.7 35 35 32.7 35 29.873V5.127C35 2.3 32.7 0 29.873 0H5.127A5.133 5.133 0 000 5.127v24.746C0 32.7 2.3 35 5.127 35zM2.051 5.127a3.08 3.08 0 013.076-3.076h24.746a3.08 3.08 0 013.076 3.076v24.746a3.08 3.08 0 01-3.076 3.076h-7.178v-8.34h4.97l1.368-8.203h-6.338v-2.05h6.153V6.151H21.67c-3.958 0-7.178 3.22-7.178 7.178v3.076h-4.101v8.203h4.101v8.34H5.127a3.08 3.08 0 01-3.076-3.076V5.127z" fill="#72147E"/></svg>