<svg width="41" height="41" fill="none" xmlns="http://www.w3.org/2000/svg"><path d="M40.896 12.054c-.096-2.178-.449-3.676-.953-4.974a10.006 10.006 0 00-2.372-3.636 10.093 10.093 0 00-3.629-2.363C32.637.577 31.147.224 28.968.128 26.773.024 26.076 0 20.508 0c-5.568 0-6.264.024-8.452.12-2.178.096-3.676.449-4.974.953a10.006 10.006 0 00-3.637 2.371A10.094 10.094 0 001.08 7.072C.577 8.378.224 9.868.128 12.046.024 14.241 0 14.938 0 20.504c0 5.567.024 6.263.12 8.45.096 2.178.449 3.676.954 4.974a10.11 10.11 0 002.37 3.636 10.093 10.093 0 003.63 2.363c1.306.505 2.795.857 4.975.953 2.186.096 2.884.12 8.451.12 5.568 0 6.265-.024 8.452-.12 2.179-.096 3.677-.449 4.974-.953a10.489 10.489 0 006-6c.505-1.305.858-2.794.954-4.973.096-2.187.12-2.883.12-8.45 0-5.567-.008-6.263-.104-8.45zm-3.693 16.74c-.088 2.002-.425 3.083-.705 3.804a6.802 6.802 0 01-3.893 3.893c-.721.28-1.81.617-3.806.705-2.163.096-2.811.12-8.283.12-5.471 0-6.128-.024-8.283-.12-2.003-.088-3.085-.425-3.806-.705a6.312 6.312 0 01-2.355-1.53 6.373 6.373 0 01-1.53-2.355c-.28-.72-.617-1.81-.705-3.804-.096-2.163-.12-2.811-.12-8.282 0-5.47.024-6.127.12-8.282.088-2.002.425-3.083.705-3.804.329-.89.85-1.698 1.538-2.355a6.366 6.366 0 012.356-1.53c.72-.28 1.81-.616 3.805-.704 2.163-.097 2.812-.12 8.283-.12 5.48 0 6.128.023 8.283.12 2.003.088 3.085.424 3.806.704a6.306 6.306 0 012.355 1.53 6.373 6.373 0 011.53 2.355c.28.72.617 1.81.705 3.804.096 2.163.12 2.812.12 8.282 0 5.47-.024 6.111-.12 8.274z" fill="#72147E"/><path d="M20.498 11.182c-5.145 0-9.318 4.173-9.318 9.318s4.174 9.318 9.318 9.318c5.144 0 9.318-4.173 9.318-9.318s-4.174-9.318-9.318-9.318zm0 15.362a6.045 6.045 0 010-12.088 6.045 6.045 0 010 12.088zm-7.452-16.542a3.728 3.728 0 11-7.455 0 3.728 3.728 0 017.455 0z" fill="#72147E"/></svg>