<svg width="110" height="36" fill="none" xmlns="http://www.w3.org/2000/svg"><path d="M44.533 21l-1.17-2.82h-4.26l-1.2 2.82h-1.23l4.605-10.485L45.763 21h-1.23zm-4.995-3.87h3.39l-1.68-4.005-1.71 4.005zm7.366-2.355h2.355c.57 0 1.005.12 1.305.36.36.29.54.68.54 1.17 0 .54-.225.955-.675 1.245.31.08.57.22.78.42.33.32.495.72.495 1.2 0 .6-.215 1.07-.645 1.41-.37.28-.86.42-1.47.42h-2.685v-6.225zm1.08 2.535h1.14c.29 0 .52-.06.69-.18.2-.15.3-.365.3-.645 0-.25-.1-.45-.3-.6-.15-.1-.44-.15-.87-.15h-.96v1.575zm0 2.73h1.335c.46 0 .785-.07.975-.21.24-.18.36-.41.36-.69 0-.3-.105-.535-.315-.705-.19-.15-.515-.225-.975-.225h-1.38v1.83zm10.135-4.38v-.885h1.08V21h-1.08v-.87c-.54.7-1.25 1.05-2.13 1.05-.84 0-1.555-.29-2.145-.87-.59-.58-.885-1.39-.885-2.43 0-1.02.29-1.815.87-2.385.59-.58 1.31-.87 2.16-.87.9 0 1.61.345 2.13 1.035zm-2.01-.075c-.57 0-1.055.205-1.455.615-.39.4-.585.96-.585 1.68 0 .69.18 1.255.54 1.695.37.43.87.645 1.5.645s1.13-.225 1.5-.675c.38-.45.57-1 .57-1.65 0-.74-.21-1.31-.63-1.71-.42-.4-.9-.6-1.44-.6zM61.245 21v-6.225h1.08v2.55h2.94v-2.55h1.08V21h-1.08v-2.685h-2.94V21h-1.08zm11.213-5.235h-1.95V21h-1.08v-5.235h-1.95v-.99h4.98v.99zm2.215 1.56h1.125c.1-.7.38-1.29.84-1.77.59-.62 1.375-.93 2.355-.93.96 0 1.75.31 2.37.93.62.62.93 1.405.93 2.355 0 .94-.315 1.72-.945 2.34-.62.62-1.405.93-2.355.93-1.09 0-1.945-.39-2.565-1.17-.4-.5-.63-1.065-.69-1.695h-1.065V21h-1.08v-6.225h1.08v2.55zm4.32-1.74c-.6 0-1.11.21-1.53.63-.41.41-.615.975-.615 1.695 0 .73.21 1.3.63 1.71.42.4.925.6 1.515.6.6 0 1.115-.205 1.545-.615.43-.41.645-.975.645-1.695 0-.72-.215-1.285-.645-1.695a2.1 2.1 0 00-1.545-.63zm6.037 4.545v4.38h-1.08v-9.735h1.08v.87c.55-.68 1.26-1.02 2.13-1.02.93 0 1.665.33 2.205.99.55.65.825 1.42.825 2.31 0 .9-.27 1.67-.81 2.31-.54.63-1.265.945-2.175.945-.91 0-1.635-.35-2.175-1.05zm2.025.09c.61 0 1.1-.22 1.47-.66.37-.45.555-.995.555-1.635 0-.72-.205-1.29-.615-1.71-.41-.42-.885-.63-1.425-.63s-1.02.21-1.44.63c-.42.42-.63.985-.63 1.695 0 .65.19 1.2.57 1.65.39.44.895.66 1.515.66zm4.79-5.445h1.08v4.11l4.26-4.59V21h-1.08v-4.155l-4.26 4.59v-6.66zm12.258.45v1.29c-.49-.62-1.14-.93-1.95-.93-.61 0-1.13.21-1.56.63-.43.41-.645.975-.645 1.695 0 .72.215 1.285.645 1.695.43.41.945.615 1.545.615.8 0 1.47-.325 2.01-.975v1.29c-.59.43-1.25.645-1.98.645-.97 0-1.77-.305-2.4-.915-.62-.62-.93-1.4-.93-2.34 0-.95.315-1.735.945-2.355.63-.63 1.425-.945 2.385-.945.72 0 1.365.2 1.935.6zm5.782.54h-1.95V21h-1.08v-5.235h-1.95v-.99h4.98v.99zM16.832 3.78a.703.703 0 10-.458 1.329A8.863 8.863 0 0122.1 15.57l-7.385-8.495a.703.703 0 00-.53-.242h-.004a.703.703 0 00-.531.247l-3.324 3.9-.875-1.028a.703.703 0 00-.536-.247h-.001a.703.703 0 00-.536.25L4.67 14.342a8.865 8.865 0 015.922-9.23.703.703 0 00-.46-1.33 10.272 10.272 0 00-6.91 9.705c0 5.66 4.606 10.265 10.266 10.265s10.266-4.605 10.266-10.265a10.27 10.27 0 00-6.922-9.709zM5.022 16.101l.016-.015 3.88-4.591 2.666 3.129-4.363 5.119a8.87 8.87 0 01-2.198-3.642zm3.268 4.555l5.187-6.085 5.195 6.096a8.811 8.811 0 01-5.184 1.68 8.811 8.811 0 01-5.198-1.69zm11.453-.9l-5.731-6.725a.703.703 0 00-1.07 0l-.434.509-1.258-1.476 2.94-3.45 7.383 8.494a8.895 8.895 0 01-1.83 2.647z" fill="#F4F5F9" fill-opacity=".87"/><path d="M35.794 31.483l-7.656-7.656.104-.104a.703.703 0 000-.994l-2.87-2.87a13.405 13.405 0 001.603-6.371C26.975 6.05 20.925 0 13.488 0S0 6.05 0 13.488c0 7.437 6.05 13.487 13.488 13.487a13.4 13.4 0 006.371-1.602l2.87 2.87a.701.701 0 00.994 0l.104-.105 7.655 7.656a.701.701 0 00.995 0l3.317-3.317a.703.703 0 000-.994zM1.406 13.488c0-6.662 5.42-12.082 12.082-12.082 6.661 0 12.081 5.42 12.081 12.082 0 6.661-5.42 12.081-12.081 12.081-6.662 0-12.082-5.42-12.082-12.081zm19.857 11.3l3.524-3.526 1.963 1.964-3.524 3.524-1.963-1.963zm10.717 9.515l-7.159-7.16 2.323-2.322 7.159 7.159-2.323 2.323z" fill="#F4F5F9" fill-opacity=".87"/><path d="M13.482 4.623a.707.707 0 00.497-1.2.708.708 0 00-.497-.206.708.708 0 00-.497.206.708.708 0 00-.206.497.707.707 0 00.703.703z" fill="#F4F5F9" fill-opacity=".87"/></svg>