<svg width="309" height="1122" fill="none" xmlns="http://www.w3.org/2000/svg"><path d="M16.5 1101l125.5-24.5 54.52-17.93a152.514 152.514 0 0086.802-72.872v0a152.534 152.534 0 0017.889-64.414l.753-15.068a173.085 173.085 0 00-2.852-41.09v0a173.184 173.184 0 00-38.483-80.06v0a173.357 173.357 0 00-71.097-49.736l-60.102-22.442a189.1 189.1 0 01-27.798-13.04v0a189.123 189.123 0 01-83.091-97.631l-.64-1.703A194.176 194.176 0 015.5 532.234v-82.143c0-9.039.88-18.057 2.627-26.926v0c10.32-52.391 49.674-94.276 101.322-107.835l70.794-18.586a156.494 156.494 0 0087.11-59.712l1.438-1.99A148.91 148.91 0 00297 147.833v0a148.91 148.91 0 00-14.62-64.345L251 18" stroke="#fff" stroke-width="2"/><circle cx="249" cy="18" r="6" fill="#FF6E31"/><path d="M257.4 1.995v4.29l4.26-4.29h1.5l-4.68 4.665 4.83 5.34h-1.53l-4.095-4.59-.285.285V12h-1.11V1.995h1.11zm7.145 3.78h1.08v4.11l4.26-4.59V12h-1.08V7.845l-4.26 4.59v-6.66zm7.383 0h1.08V12h-1.08V5.775zm-.975-1.5a.72.72 0 01-.225-.525c0-.2.075-.375.225-.525a.72.72 0 01.525-.225c.2 0 .375.075.525.225a.72.72 0 01.225.525.72.72 0 01-.225.525.72.72 0 01-.525.225.72.72 0 01-.525-.225zm1.98 0a.72.72 0 01-.225-.525c0-.2.075-.375.225-.525a.72.72 0 01.525-.225c.2 0 .375.075.525.225a.72.72 0 01.225.525.72.72 0 01-.225.525.72.72 0 01-.525.225.72.72 0 01-.525-.225zm2.115 1.5h2.355c.57 0 1.005.12 1.305.36.36.29.54.68.54 1.17 0 .54-.225.955-.675 1.245.31.08.57.22.78.42.33.32.495.72.495 1.2 0 .6-.215 1.07-.645 1.41-.37.28-.86.42-1.47.42h-2.685V5.775zm1.08 2.535h1.14c.29 0 .52-.06.69-.18.2-.15.3-.365.3-.645 0-.25-.1-.45-.3-.6-.15-.1-.44-.15-.87-.15h-.96V8.31zm0 2.73h1.335c.46 0 .785-.07.975-.21.24-.18.36-.41.36-.69 0-.3-.105-.535-.315-.705-.19-.15-.515-.225-.975-.225h-1.38v1.83z" fill="#fff"/><circle cx="213" cy="284" r="6" fill="#FF6E31"/><path d="M224.895 296.225v1.29c-.49-.62-1.14-.93-1.95-.93-.61 0-1.13.21-1.56.63-.43.41-.645.975-.645 1.695 0 .72.215 1.285.645 1.695.43.41.945.615 1.545.615.8 0 1.47-.325 2.01-.975v1.29c-.59.43-1.25.645-1.98.645-.97 0-1.77-.305-2.4-.915-.62-.62-.93-1.4-.93-2.34 0-.95.315-1.735.945-2.355.63-.63 1.425-.945 2.385-.945.72 0 1.365.2 1.935.6zm1.867 5.7a.72.72 0 01-.225-.525c0-.2.075-.375.225-.525a.72.72 0 01.525-.225c.2 0 .375.075.525.225a.72.72 0 01.225.525.72.72 0 01-.225.525.72.72 0 01-.525.225.72.72 0 01-.525-.225zm7.019-9.93h7.35V302h-1.11v-8.955h-5.13V302h-1.11v-10.005zm14.927 9.255c-.62.62-1.405.93-2.355.93s-1.74-.31-2.37-.93c-.62-.62-.93-1.4-.93-2.34 0-.95.31-1.735.93-2.355.63-.62 1.42-.93 2.37-.93.95 0 1.735.31 2.355.93.63.62.945 1.405.945 2.355 0 .94-.315 1.72-.945 2.34zm-.81-4.05c-.42-.41-.935-.615-1.545-.615-.61 0-1.13.21-1.56.63-.42.41-.63.975-.63 1.695 0 .72.215 1.285.645 1.695.43.41.945.615 1.545.615s1.115-.205 1.545-.615c.43-.41.645-.975.645-1.695 0-.73-.215-1.3-.645-1.71zm3.861-1.425h4.38v5.235h.93v2.64h-.99V302h-4.74v1.65h-.99v-2.64c.52-.01.905-.28 1.155-.81.17-.35.255-.9.255-1.65v-2.775zm3.3 5.235v-4.245h-2.22v2.34c0 .83-.25 1.465-.75 1.905h2.97zm8.414.24c-.62.62-1.405.93-2.355.93s-1.74-.31-2.37-.93c-.62-.62-.93-1.4-.93-2.34 0-.95.31-1.735.93-2.355.63-.62 1.42-.93 2.37-.93.95 0 1.735.31 2.355.93.63.62.945 1.405.945 2.355 0 .94-.315 1.72-.945 2.34zm-.81-4.05c-.42-.41-.935-.615-1.545-.615-.61 0-1.13.21-1.56.63-.42.41-.63.975-.63 1.695 0 .72.215 1.285.645 1.695.43.41.945.615 1.545.615s1.115-.205 1.545-.615c.43-.41.645-.975.645-1.695 0-.73-.215-1.3-.645-1.71zm8.212-5.7h1.2c-.11.37-.3.685-.57.945-.26.25-.5.42-.72.51-.21.09-.46.17-.75.24-.05.01-.17.04-.36.09-.19.04-.335.075-.435.105l-.39.12c-.16.05-.305.11-.435.18-.13.07-.25.145-.36.225-.38.29-.69.695-.93 1.215a4.298 4.298 0 00-.375 1.635h.03c.45-.76 1.205-1.14 2.265-1.14.93 0 1.7.315 2.31.945.62.63.93 1.41.93 2.34 0 .94-.315 1.72-.945 2.34-.63.62-1.45.93-2.46.93-.87 0-1.585-.26-2.145-.78-.7-.64-1.05-1.71-1.05-3.21 0-2.61.59-4.32 1.77-5.13.09-.06.185-.115.285-.165.1-.06.205-.11.315-.15.12-.05.22-.09.3-.12.08-.04.19-.075.33-.105.15-.04.25-.065.3-.075.06-.02.17-.045.33-.075l.315-.075c.4-.09.69-.195.87-.315.18-.13.305-.29.375-.48zm-.345 5.7c-.42-.41-.935-.615-1.545-.615-.61 0-1.13.21-1.56.63-.42.41-.63.975-.63 1.695 0 .72.215 1.285.645 1.695.43.41.945.615 1.545.615s1.115-.205 1.545-.615c.43-.41.645-.975.645-1.695 0-.73-.215-1.3-.645-1.71zm8.676 4.05c-.62.62-1.405.93-2.355.93s-1.74-.31-2.37-.93c-.62-.62-.93-1.4-.93-2.34 0-.95.31-1.735.93-2.355.63-.62 1.42-.93 2.37-.93.95 0 1.735.31 2.355.93.63.62.945 1.405.945 2.355 0 .94-.315 1.72-.945 2.34zm-.81-4.05c-.42-.41-.935-.615-1.545-.615-.61 0-1.13.21-1.56.63-.42.41-.63.975-.63 1.695 0 .72.215 1.285.645 1.695.43.41.945.615 1.545.615s1.115-.205 1.545-.615c.43-.41.645-.975.645-1.695 0-.73-.215-1.3-.645-1.71zm3.411-1.425h2.355c.57 0 1.005.12 1.305.36.36.29.54.68.54 1.17 0 .54-.225.955-.675 1.245.31.08.57.22.78.42.33.32.495.72.495 1.2 0 .6-.215 1.07-.645 1.41-.37.28-.86.42-1.47.42h-2.685v-6.225zm1.08 2.535h1.14c.29 0 .52-.06.69-.18.2-.15.3-.365.3-.645 0-.25-.1-.45-.3-.6-.15-.1-.44-.15-.87-.15h-.96v1.575zm0 2.73h1.335c.46 0 .785-.07.975-.21.24-.18.36-.41.36-.69 0-.3-.105-.535-.315-.705-.19-.15-.515-.225-.975-.225h-1.38v1.83zm9.985-1.125l.9.495c-.21.4-.465.735-.765 1.005-.57.51-1.26.765-2.07.765-.84 0-1.565-.27-2.175-.81-.6-.55-.9-1.365-.9-2.445 0-.95.27-1.735.81-2.355.55-.63 1.285-.945 2.205-.945 1.04 0 1.825.38 2.355 1.14.42.6.615 1.38.585 2.34h-4.845c.01.63.205 1.14.585 1.53.38.39.845.585 1.395.585.49 0 .915-.15 1.275-.45.28-.24.495-.525.645-.855zm-3.825-1.71h3.66c-.09-.49-.305-.88-.645-1.17a1.7 1.7 0 00-1.185-.45c-.45 0-.85.155-1.2.465-.34.3-.55.685-.63 1.155zm6.427 3.795v-6.225h1.08v5.235h2.79v-5.235h1.08v5.235h1.02v2.64h-.99V302h-4.98zm7.105 0v-6.225h1.08v2.385h1.11c.86 0 1.49.205 1.89.615.32.32.48.755.48 1.305 0 .58-.185 1.045-.555 1.395-.37.35-.98.525-1.83.525h-2.175zm1.08-.96h1.005c.45 0 .77-.055.96-.165.27-.18.405-.445.405-.795 0-.36-.13-.62-.39-.78-.18-.12-.5-.18-.96-.18h-1.02v1.92z" fill="#fff"/><circle cx="95" cy="322" r="6" fill="#FF6E31"/><path d="M102.02 333.775h2.355c.57 0 1.005.12 1.305.36.36.29.54.68.54 1.17 0 .54-.225.955-.675 1.245.31.08.57.22.78.42.33.32.495.72.495 1.2 0 .6-.215 1.07-.645 1.41-.37.28-.86.42-1.47.42h-2.685v-6.225zm1.08 2.535h1.14c.29 0 .52-.06.69-.18.2-.15.3-.365.3-.645 0-.25-.1-.45-.3-.6-.15-.1-.44-.15-.87-.15h-.96v1.575zm0 2.73h1.335c.46 0 .785-.07.975-.21.24-.18.36-.41.36-.69 0-.3-.105-.535-.315-.705-.19-.15-.515-.225-.975-.225h-1.38v1.83zm10.63.21c-.62.62-1.405.93-2.355.93s-1.74-.31-2.37-.93c-.62-.62-.93-1.4-.93-2.34 0-.95.31-1.735.93-2.355.63-.62 1.42-.93 2.37-.93.95 0 1.735.31 2.355.93.63.62.945 1.405.945 2.355 0 .94-.315 1.72-.945 2.34zm-.81-4.05c-.42-.41-.935-.615-1.545-.615-.61 0-1.13.21-1.56.63-.42.41-.63.975-.63 1.695 0 .72.215 1.285.645 1.695.43.41.945.615 1.545.615s1.115-.205 1.545-.615c.43-.41.645-.975.645-1.695 0-.73-.215-1.3-.645-1.71zm3.862-1.425h4.38v5.235h.93v2.64h-.99V340h-4.74v1.65h-.99v-2.64c.52-.01.905-.28 1.155-.81.17-.35.255-.9.255-1.65v-2.775zm3.3 5.235v-4.245h-2.22v2.34c0 .83-.25 1.465-.75 1.905h2.97zm8.414.24c-.62.62-1.405.93-2.355.93s-1.74-.31-2.37-.93c-.62-.62-.93-1.4-.93-2.34 0-.95.31-1.735.93-2.355.63-.62 1.42-.93 2.37-.93.95 0 1.735.31 2.355.93.63.62.945 1.405.945 2.355 0 .94-.315 1.72-.945 2.34zm-.81-4.05c-.42-.41-.935-.615-1.545-.615-.61 0-1.13.21-1.56.63-.42.41-.63.975-.63 1.695 0 .72.215 1.285.645 1.695.43.41.945.615 1.545.615s1.115-.205 1.545-.615c.43-.41.645-.975.645-1.695 0-.73-.215-1.3-.645-1.71zm8.286-.975v1.29c-.49-.62-1.14-.93-1.95-.93-.61 0-1.13.21-1.56.63-.43.41-.645.975-.645 1.695 0 .72.215 1.285.645 1.695.43.41.945.615 1.545.615.8 0 1.47-.325 2.01-.975v1.29c-.59.43-1.25.645-1.98.645-.97 0-1.77-.305-2.4-.915-.62-.62-.93-1.4-.93-2.34 0-.95.315-1.735.945-2.355.63-.63 1.425-.945 2.385-.945.72 0 1.365.2 1.935.6zm1.702-.45h5.01V340h-1.08v-5.235h-2.85V340h-1.08v-6.225zm11.816.885v-.885h1.08V340h-1.08v-.87c-.54.7-1.25 1.05-2.13 1.05-.84 0-1.555-.29-2.145-.87-.59-.58-.885-1.39-.885-2.43 0-1.02.29-1.815.87-2.385.59-.58 1.31-.87 2.16-.87.9 0 1.61.345 2.13 1.035zm-2.01-.075c-.57 0-1.055.205-1.455.615-.39.4-.585.96-.585 1.68 0 .69.18 1.255.54 1.695.37.43.87.645 1.5.645s1.13-.225 1.5-.675c.38-.45.57-1 .57-1.65 0-.74-.21-1.31-.63-1.71-.42-.4-.9-.6-1.44-.6zm5.586-.81h4.38v5.235h.93v2.64h-.99V340h-4.74v1.65h-.99v-2.64c.52-.01.905-.28 1.155-.81.17-.35.255-.9.255-1.65v-2.775zm3.3 5.235v-4.245h-2.22v2.34c0 .83-.25 1.465-.75 1.905h2.97zm6.92.99v-10.005h1.11v8.955h3.96v-8.955h1.11v8.955h3.96v-8.955h1.11V340h-11.25zm13.558-6.225h1.08v4.11l4.26-4.59V340h-1.08v-4.155l-4.26 4.59v-6.66zm7.383 0h5.01V340h-1.08v-5.235h-2.85V340h-1.08v-6.225zm7.046 0h1.08V340h-1.08v-6.225zm0-1.815a.736.736 0 01-.225-.54c0-.21.075-.39.225-.54.15-.15.33-.225.54-.225.21 0 .39.075.54.225.15.15.225.33.225.54 0 .21-.075.39-.225.54a.736.736 0 01-.54.225.736.736 0 01-.54-.225zm7.2 2.805h-1.95V340h-1.08v-5.235h-1.95v-.99h4.98v.99z" fill="#fff"/><circle cx="6" cy="469" r="6" fill="#FF6E31"/><path d="M13.02 463v-6.225h3.69v.99H14.1V463h-1.08zm10.04-.75c-.62.62-1.405.93-2.355.93s-1.74-.31-2.37-.93c-.62-.62-.93-1.4-.93-2.34 0-.95.31-1.735.93-2.355.63-.62 1.42-.93 2.37-.93.95 0 1.735.31 2.355.93.63.62.945 1.405.945 2.355 0 .94-.315 1.72-.945 2.34zm-.81-4.05c-.42-.41-.935-.615-1.545-.615-.61 0-1.13.21-1.56.63-.42.41-.63.975-.63 1.695 0 .72.215 1.285.645 1.695.43.41.945.615 1.545.615s1.115-.205 1.545-.615c.43-.41.645-.975.645-1.695 0-.73-.215-1.3-.645-1.71zm4.492 3.93v4.38h-1.08v-9.735h1.08v.87c.55-.68 1.26-1.02 2.13-1.02.93 0 1.665.33 2.205.99.55.65.825 1.42.825 2.31 0 .9-.27 1.67-.81 2.31-.54.63-1.265.945-2.175.945-.91 0-1.635-.35-2.175-1.05zm2.025.09c.61 0 1.1-.22 1.47-.66.37-.45.555-.995.555-1.635 0-.72-.205-1.29-.615-1.71-.41-.42-.885-.63-1.425-.63s-1.02.21-1.44.63c-.42.42-.63.985-.63 1.695 0 .65.19 1.2.57 1.65.39.44.895.66 1.515.66zm9.56-4.56v-.885h1.08V463h-1.08v-.87c-.54.7-1.25 1.05-2.13 1.05-.84 0-1.555-.29-2.145-.87-.59-.58-.885-1.39-.885-2.43 0-1.02.29-1.815.87-2.385.59-.58 1.31-.87 2.16-.87.9 0 1.61.345 2.13 1.035zm-2.01-.075c-.57 0-1.055.205-1.455.615-.39.4-.585.96-.585 1.68 0 .69.18 1.255.54 1.695.37.43.87.645 1.5.645s1.13-.225 1.5-.675c.38-.45.57-1 .57-1.65 0-.74-.21-1.31-.63-1.71-.42-.4-.9-.6-1.44-.6zM45.224 463v-10.005h4.56v1.05h-3.45V463h-1.11zm3.7-6.225h1.08v4.11l4.26-4.59V463h-1.08v-4.155l-4.26 4.59v-6.66zM55.585 463l1.5-6.705 2.58 5.07 2.52-5.07 1.5 6.705h-1.11l-.825-3.855-2.115 4.29-2.145-4.29-.795 3.855h-1.11zm14.221-10.5h1.2c-.11.37-.3.685-.57.945-.26.25-.5.42-.72.51-.21.09-.46.17-.75.24-.05.01-.17.04-.36.09-.19.04-.335.075-.435.105l-.39.12c-.16.05-.305.11-.435.18-.13.07-.25.145-.36.225-.38.29-.69.695-.93 1.215a4.298 4.298 0 00-.375 1.635h.03c.45-.76 1.205-1.14 2.265-1.14.93 0 1.7.315 2.31.945.62.63.93 1.41.93 2.34 0 .94-.315 1.72-.945 2.34-.63.62-1.45.93-2.46.93-.87 0-1.585-.26-2.145-.78-.7-.64-1.05-1.71-1.05-3.21 0-2.61.59-4.32 1.77-5.13.09-.06.185-.115.285-.165.1-.06.205-.11.315-.15.12-.05.22-.09.3-.12.08-.04.19-.075.33-.105.15-.04.25-.065.3-.075.06-.02.17-.045.33-.075l.315-.075c.4-.09.69-.195.87-.315.18-.13.305-.29.375-.48zm-.345 5.7c-.42-.41-.935-.615-1.545-.615-.61 0-1.13.21-1.56.63-.42.41-.63.975-.63 1.695 0 .72.215 1.285.645 1.695.43.41.945.615 1.545.615s1.115-.205 1.545-.615c.43-.41.645-.975.645-1.695 0-.73-.215-1.3-.645-1.71zm8.181-.54v-.885h1.08V463h-1.08v-.87c-.54.7-1.25 1.05-2.13 1.05-.84 0-1.555-.29-2.145-.87-.59-.58-.884-1.39-.884-2.43 0-1.02.29-1.815.87-2.385.59-.58 1.31-.87 2.16-.87.9 0 1.61.345 2.13 1.035zm-2.01-.075c-.57 0-1.054.205-1.454.615-.39.4-.585.96-.585 1.68 0 .69.18 1.255.54 1.695.37.43.87.645 1.5.645s1.13-.225 1.5-.675c.38-.45.57-1 .57-1.65 0-.74-.21-1.31-.63-1.71-.42-.4-.9-.6-1.44-.6z" fill="#fff"/><circle cx="167" cy="728" r="6" fill="#FF6E31"/><path d="M175.02 726v-6.225h3.69v.99h-2.61V726h-1.08zm10.04-.75c-.62.62-1.405.93-2.355.93s-1.74-.31-2.37-.93c-.62-.62-.93-1.4-.93-2.34 0-.95.31-1.735.93-2.355.63-.62 1.42-.93 2.37-.93.95 0 1.735.31 2.355.93.63.62.945 1.405.945 2.355 0 .94-.315 1.72-.945 2.34zm-.81-4.05c-.42-.41-.935-.615-1.545-.615-.61 0-1.13.21-1.56.63-.42.41-.63.975-.63 1.695 0 .72.215 1.285.645 1.695.43.41.945.615 1.545.615s1.115-.205 1.545-.615c.43-.41.645-.975.645-1.695 0-.73-.215-1.3-.645-1.71zm4.492 3.93v4.38h-1.08v-9.735h1.08v.87c.55-.68 1.26-1.02 2.13-1.02.93 0 1.665.33 2.205.99.55.65.825 1.42.825 2.31 0 .9-.27 1.67-.81 2.31-.54.63-1.265.945-2.175.945-.91 0-1.635-.35-2.175-1.05zm2.025.09c.61 0 1.1-.22 1.47-.66.37-.45.555-.995.555-1.635 0-.72-.205-1.29-.615-1.71-.41-.42-.885-.63-1.425-.63s-1.02.21-1.44.63c-.42.42-.63.985-.63 1.695 0 .65.19 1.2.57 1.65.39.44.895.66 1.515.66zm9.56-4.56v-.885h1.08V726h-1.08v-.87c-.54.7-1.25 1.05-2.13 1.05-.84 0-1.555-.29-2.145-.87-.59-.58-.885-1.39-.885-2.43 0-1.02.29-1.815.87-2.385.59-.58 1.31-.87 2.16-.87.9 0 1.61.345 2.13 1.035zm-2.01-.075c-.57 0-1.055.205-1.455.615-.39.4-.585.96-.585 1.68 0 .69.18 1.255.54 1.695.37.43.87.645 1.5.645s1.13-.225 1.5-.675c.38-.45.57-1 .57-1.65 0-.74-.21-1.31-.63-1.71-.42-.4-.9-.6-1.44-.6zm8.907-4.59h1.8c1 0 1.765.21 2.295.63.6.46.9 1.15.9 2.07 0 .86-.33 1.515-.99 1.965.64.16 1.115.485 1.425.975a2.734 2.734 0 01.18 2.79c-.19.38-.43.685-.72.915-.56.44-1.36.66-2.4.66h-2.49v-10.005zm1.11 1.05v3.345h.84c.15 0 .295-.005.435-.015.14-.02.305-.06.495-.12.2-.07.37-.16.51-.27.15-.11.275-.275.375-.495.1-.22.15-.475.15-.765 0-.31-.06-.575-.18-.795-.12-.23-.255-.4-.405-.51-.15-.11-.33-.195-.54-.255-.21-.06-.37-.095-.48-.105-.11-.01-.22-.015-.33-.015h-.87zm0 4.335v3.57h1.275c.81 0 1.395-.14 1.755-.42.44-.32.66-.78.66-1.38 0-.67-.285-1.16-.855-1.47-.36-.2-.925-.3-1.695-.3h-1.14zm11.194 2.535l.9.495c-.21.4-.465.735-.765 1.005-.57.51-1.26.765-2.07.765-.84 0-1.565-.27-2.175-.81-.6-.55-.9-1.365-.9-2.445 0-.95.27-1.735.81-2.355.55-.63 1.285-.945 2.205-.945 1.04 0 1.825.38 2.355 1.14.42.6.615 1.38.585 2.34h-4.845c.01.63.205 1.14.585 1.53.38.39.845.585 1.395.585.49 0 .915-.15 1.275-.45.28-.24.495-.525.645-.855zm-3.825-1.71h3.66c-.09-.49-.305-.88-.645-1.17a1.7 1.7 0 00-1.185-.45c-.45 0-.85.155-1.2.465-.34.3-.55.685-.63 1.155zm11.136-2.43V726h-1.08v-5.235h-2.22v2.805c0 .81-.16 1.41-.48 1.8-.36.44-.86.66-1.5.66-.08 0-.19-.01-.33-.03v-.99c.1.02.18.03.24.03.35 0 .61-.135.78-.405.14-.22.21-.575.21-1.065v-3.795h4.38zm2.043 0h1.08v4.11l4.26-4.59V726h-1.08v-4.155l-4.26 4.59v-6.66zm7.383 0h1.08v2.55l2.52-2.55h1.32l-2.7 2.775 3.03 3.45h-1.41l-2.43-2.73-.33.315V726h-1.08v-6.225zm6.328 0h1.08v4.11l4.26-4.59V726h-1.08v-4.155l-4.26 4.59v-6.66zm7.383 0h1.08v4.11l4.26-4.59V726h-1.08v-4.155l-4.26 4.59v-6.66zm.54-2.685l.9-.345c.18.6.605.9 1.275.9.67 0 1.095-.3 1.275-.9l.9.345c-.16.45-.435.805-.825 1.065-.38.26-.83.39-1.35.39-.52 0-.975-.13-1.365-.39-.38-.26-.65-.615-.81-1.065zm10.614-1.095h1.8c1 0 1.765.21 2.295.63.6.46.9 1.15.9 2.07 0 .86-.33 1.515-.99 1.965.64.16 1.115.485 1.425.975a2.734 2.734 0 01.18 2.79c-.19.38-.43.685-.72.915-.56.44-1.36.66-2.4.66h-2.49v-10.005zm1.11 1.05v3.345h.84c.15 0 .295-.005.435-.015.14-.02.305-.06.495-.12.2-.07.37-.16.51-.27.15-.11.275-.275.375-.495.1-.22.15-.475.15-.765 0-.31-.06-.575-.18-.795-.12-.23-.255-.4-.405-.51-.15-.11-.33-.195-.54-.255-.21-.06-.37-.095-.48-.105-.11-.01-.22-.015-.33-.015h-.87zm0 4.335v3.57h1.275c.81 0 1.395-.14 1.755-.42.44-.32.66-.78.66-1.38 0-.67-.285-1.16-.855-1.47-.36-.2-.925-.3-1.695-.3h-1.14zm11.194 2.535l.9.495c-.21.4-.465.735-.765 1.005-.57.51-1.26.765-2.07.765-.84 0-1.565-.27-2.175-.81-.6-.55-.9-1.365-.9-2.445 0-.95.27-1.735.81-2.355.55-.63 1.285-.945 2.205-.945 1.04 0 1.825.38 2.355 1.14.42.6.615 1.38.585 2.34h-4.845c.01.63.205 1.14.585 1.53.38.39.845.585 1.395.585.49 0 .915-.15 1.275-.45.28-.24.495-.525.645-.855zm-3.825-1.71h3.66c-.09-.49-.305-.88-.645-1.17a1.7 1.7 0 00-1.185-.45c-.45 0-.85.155-1.2.465-.34.3-.55.685-.63 1.155zm7.507 2.925v4.38h-1.08v-9.735h1.08v.87c.55-.68 1.26-1.02 2.13-1.02.93 0 1.665.33 2.205.99.55.65.825 1.42.825 2.31 0 .9-.27 1.67-.81 2.31-.54.63-1.265.945-2.175.945-.91 0-1.635-.35-2.175-1.05zm2.025.09c.61 0 1.1-.22 1.47-.66.37-.45.555-.995.555-1.635 0-.72-.205-1.29-.615-1.71-.41-.42-.885-.63-1.425-.63s-1.02.21-1.44.63c-.42.42-.63.985-.63 1.695 0 .65.19 1.2.57 1.65.39.44.895.66 1.515.66zm3.89.78l2.655-3.33-2.265-2.895h1.32l1.605 2.115 1.635-2.115h1.32l-2.28 2.91 2.58 3.315h-1.32l-1.965-2.535-1.965 2.535h-1.32z" fill="#fff"/><circle cx="303" cy="885" r="6" fill="#FF6E31"/><path d="M210.02 879v-6.225h3.69v.99h-2.61V879h-1.08zm10.04-.75c-.62.62-1.405.93-2.355.93s-1.74-.31-2.37-.93c-.62-.62-.93-1.4-.93-2.34 0-.95.31-1.735.93-2.355.63-.62 1.42-.93 2.37-.93.95 0 1.735.31 2.355.93.63.62.945 1.405.945 2.355 0 .94-.315 1.72-.945 2.34zm-.81-4.05c-.42-.41-.935-.615-1.545-.615-.61 0-1.13.21-1.56.63-.42.41-.63.975-.63 1.695 0 .72.215 1.285.645 1.695.43.41.945.615 1.545.615s1.115-.205 1.545-.615c.43-.41.645-.975.645-1.695 0-.73-.215-1.3-.645-1.71zm4.492 3.93v4.38h-1.08v-9.735h1.08v.87c.55-.68 1.26-1.02 2.13-1.02.93 0 1.665.33 2.205.99.55.65.825 1.42.825 2.31 0 .9-.27 1.67-.81 2.31-.54.63-1.265.945-2.175.945-.91 0-1.635-.35-2.175-1.05zm2.025.09c.61 0 1.1-.22 1.47-.66.37-.45.555-.995.555-1.635 0-.72-.205-1.29-.615-1.71-.41-.42-.885-.63-1.425-.63s-1.02.21-1.44.63c-.42.42-.63.985-.63 1.695 0 .65.19 1.2.57 1.65.39.44.895.66 1.515.66zm9.56-4.56v-.885h1.08V879h-1.08v-.87c-.54.7-1.25 1.05-2.13 1.05-.84 0-1.555-.29-2.145-.87-.59-.58-.885-1.39-.885-2.43 0-1.02.29-1.815.87-2.385.59-.58 1.31-.87 2.16-.87.9 0 1.61.345 2.13 1.035zm-2.01-.075c-.57 0-1.055.205-1.455.615-.39.4-.585.96-.585 1.68 0 .69.18 1.255.54 1.695.37.43.87.645 1.5.645s1.13-.225 1.5-.675c.38-.45.57-1 .57-1.65 0-.74-.21-1.31-.63-1.71-.42-.4-.9-.6-1.44-.6zm13.797-3.54h-2.43V879h-1.11v-8.955h-2.43v-1.05h5.97v1.05zm4.528 6.87l.9.495c-.21.4-.465.735-.765 1.005-.57.51-1.26.765-2.07.765-.84 0-1.565-.27-2.175-.81-.6-.55-.9-1.365-.9-2.445 0-.95.27-1.735.81-2.355.55-.63 1.285-.945 2.205-.945 1.04 0 1.825.38 2.355 1.14.42.6.615 1.38.585 2.34h-4.845c.01.63.205 1.14.585 1.53.38.39.845.585 1.395.585.49 0 .915-.15 1.275-.45.28-.24.495-.525.645-.855zm-3.825-1.71h3.66c-.09-.49-.305-.88-.645-1.17a1.7 1.7 0 00-1.185-.45c-.45 0-.85.155-1.2.465-.34.3-.55.685-.63 1.155zm5.707 3.795l1.5-6.705 2.58 5.07 2.52-5.07 1.5 6.705h-1.11l-.825-3.855-2.115 4.29-2.145-4.29-.795 3.855h-1.11zm9.421 0v-6.225h1.08v2.55h2.94v-2.55h1.08V879h-1.08v-2.685h-2.94V879h-1.08zm11.904-5.34v-.885h1.08V879h-1.08v-.87c-.54.7-1.25 1.05-2.13 1.05-.84 0-1.555-.29-2.145-.87-.59-.58-.885-1.39-.885-2.43 0-1.02.29-1.815.87-2.385.59-.58 1.31-.87 2.16-.87.9 0 1.61.345 2.13 1.035zm-2.01-.075c-.57 0-1.055.205-1.455.615-.39.4-.585.96-.585 1.68 0 .69.18 1.255.54 1.695.37.43.87.645 1.5.645s1.13-.225 1.5-.675c.38-.45.57-1 .57-1.65 0-.74-.21-1.31-.63-1.71-.42-.4-.9-.6-1.44-.6zm9.215.18h-1.95V879h-1.08v-5.235h-1.95v-.99h4.98v.99zm1.135-.99h1.08v4.11l4.26-4.59V879h-1.08v-4.155l-4.26 4.59v-6.66zm7.383 0h1.08v2.55l2.52-2.55h1.32l-2.7 2.775 3.03 3.45h-1.41l-2.43-2.73-.33.315V879h-1.08v-6.225z" fill="#fff"/><circle cx="19" cy="1101" r="6" fill="#FF6E31"/><path d="M27.4 1106.99v4.29l4.26-4.29h1.5l-4.68 4.67 4.83 5.34h-1.53l-4.095-4.59-.285.28v4.31h-1.11v-10.01h1.11zm7.145 3.78h1.08v4.11l4.26-4.59v6.71h-1.08v-4.16l-4.26 4.6v-6.67zm7.383 0h1.08v6.23h-1.08v-6.23zm-.975-1.5a.709.709 0 01-.225-.52c0-.2.075-.38.225-.53.15-.15.325-.22.525-.22s.375.07.525.22c.15.15.225.33.225.53s-.075.37-.225.52a.725.725 0 01-.525.23c-.2 0-.375-.08-.525-.23zm1.98 0a.709.709 0 01-.225-.52c0-.2.075-.38.225-.53.15-.15.325-.22.525-.22s.375.07.525.22c.15.15.225.33.225.53s-.075.37-.225.52a.725.725 0 01-.525.23c-.2 0-.375-.08-.525-.23zm2.115 1.5h2.355c.57 0 1.005.12 1.305.36.36.29.54.68.54 1.17 0 .54-.225.96-.675 1.25.31.08.57.22.78.42.33.32.495.72.495 1.2 0 .6-.215 1.07-.645 1.41-.37.28-.86.42-1.47.42h-2.685v-6.23zm1.08 2.54h1.14c.29 0 .52-.06.69-.18.2-.15.3-.37.3-.65 0-.25-.1-.45-.3-.6-.15-.1-.44-.15-.87-.15h-.96v1.58zm0 2.73h1.335c.46 0 .785-.07.975-.21.24-.18.36-.41.36-.69 0-.3-.105-.54-.315-.71-.19-.15-.515-.22-.975-.22h-1.38v1.83z" fill="#fff"/><circle cx="153" cy="1075" r="6" fill="#FF6E31"/><path d="M159.3 1090l1.5-6.71 2.58 5.07 2.52-5.07 1.5 6.71h-1.11l-.825-3.85-2.115 4.29-2.145-4.29-.795 3.85h-1.11zm9.586-.08a.709.709 0 01-.225-.52c0-.2.075-.38.225-.53.15-.15.325-.22.525-.22s.375.07.525.22c.15.15.225.33.225.53s-.075.37-.225.52a.688.688 0 01-.525.23c-.2 0-.375-.07-.525-.23zm7.019-9.93h1.8c1 0 1.765.21 2.295.63.6.46.9 1.15.9 2.07 0 .86-.33 1.52-.99 1.97.64.16 1.115.48 1.425.97.32.48.48 1 .48 1.55 0 .45-.1.86-.3 1.24-.19.38-.43.69-.72.92-.56.44-1.36.66-2.4.66h-2.49v-10.01zm1.11 1.05v3.35h.84c.15 0 .295-.01.435-.02.14-.02.305-.06.495-.12.2-.07.37-.16.51-.27.15-.11.275-.27.375-.49.1-.22.15-.48.15-.77 0-.31-.06-.57-.18-.79-.12-.23-.255-.4-.405-.51-.15-.11-.33-.2-.54-.26a2.735 2.735 0 00-.81-.12h-.87zm0 4.34v3.57h1.275c.81 0 1.395-.14 1.755-.42.44-.32.66-.78.66-1.38 0-.67-.285-1.16-.855-1.47-.36-.2-.925-.3-1.695-.3h-1.14zm11.839 3.87c-.62.62-1.405.93-2.355.93s-1.74-.31-2.37-.93c-.62-.62-.93-1.4-.93-2.34 0-.95.31-1.74.93-2.36.63-.62 1.42-.93 2.37-.93.95 0 1.735.31 2.355.93.63.62.945 1.41.945 2.36 0 .94-.315 1.72-.945 2.34zm-.81-4.05c-.42-.41-.935-.62-1.545-.62-.61 0-1.13.21-1.56.63-.42.41-.63.98-.63 1.7s.215 1.28.645 1.69c.43.41.945.62 1.545.62s1.115-.21 1.545-.62c.43-.41.645-.97.645-1.69 0-.73-.215-1.3-.645-1.71zm8.122-1.43v6.23h-1.08v-5.24h-2.22v2.81c0 .81-.16 1.41-.48 1.8-.36.44-.86.66-1.5.66-.08 0-.19-.01-.33-.03v-.99c.1.02.18.03.24.03.35 0 .61-.14.78-.41.14-.22.21-.57.21-1.06v-3.8h4.38zm7.307 5.48c-.62.62-1.405.93-2.355.93s-1.74-.31-2.37-.93c-.62-.62-.93-1.4-.93-2.34 0-.95.31-1.74.93-2.36.63-.62 1.42-.93 2.37-.93.95 0 1.735.31 2.355.93.63.62.945 1.41.945 2.36 0 .94-.315 1.72-.945 2.34zm-.81-4.05c-.42-.41-.935-.62-1.545-.62-.61 0-1.13.21-1.56.63-.42.41-.63.98-.63 1.7s.215 1.28.645 1.69c.43.41.945.62 1.545.62s1.115-.21 1.545-.62c.43-.41.645-.97.645-1.69 0-.73-.215-1.3-.645-1.71zm3.412-1.43h2.355c.57 0 1.005.12 1.305.36.36.29.54.68.54 1.17 0 .54-.225.96-.675 1.25.31.08.57.22.78.42.33.32.495.72.495 1.2 0 .6-.215 1.07-.645 1.41-.37.28-.86.42-1.47.42h-2.685v-6.23zm1.08 2.54h1.14c.29 0 .52-.06.69-.18.2-.15.3-.37.3-.65 0-.25-.1-.45-.3-.6-.15-.1-.44-.15-.87-.15h-.96v1.58zm0 2.73h1.335c.46 0 .785-.07.975-.21.24-.18.36-.41.36-.69 0-.3-.105-.54-.315-.71-.19-.15-.515-.22-.975-.22h-1.38v1.83zm9.985-1.13l.9.5c-.21.4-.465.73-.765 1-.57.51-1.26.77-2.07.77-.84 0-1.565-.27-2.175-.81-.6-.55-.9-1.37-.9-2.45 0-.95.27-1.73.81-2.35.55-.63 1.285-.95 2.205-.95 1.04 0 1.825.38 2.355 1.14.42.6.615 1.38.585 2.34h-4.845c.01.63.205 1.14.585 1.53.38.39.845.59 1.395.59.49 0 .915-.15 1.275-.45.28-.24.495-.53.645-.86zm-3.825-1.71h3.66c-.09-.49-.305-.88-.645-1.17a1.7 1.7 0 00-1.185-.45c-.45 0-.85.16-1.2.47-.34.3-.55.68-.63 1.15zm6.427 3.8v-6.23h1.08v5.24h2.79v-5.24h1.08v5.24h1.02v2.64h-.99V1090h-4.98zm7.104 0v-6.23h1.08v2.39h1.11c.86 0 1.49.2 1.89.61.32.32.48.76.48 1.31 0 .58-.185 1.04-.555 1.39-.37.35-.98.53-1.83.53h-2.175zm1.08-.96h1.005c.45 0 .77-.06.96-.17.27-.18.405-.44.405-.79 0-.36-.13-.62-.39-.78-.18-.12-.5-.18-.96-.18h-1.02v1.92z" fill="#fff"/></svg>