<svg width="768" height="1048" fill="none" xmlns="http://www.w3.org/2000/svg"><path d="M527.427 21v0c55.926 29.133 53.944 109.822-3.346 136.172l-206.179 94.833c-144.097 66.278-145.5 270.554-2.326 338.805l108.57 51.755c184.068 87.745 134.178 362.405-68.989 379.805L114.374 1043" stroke="#fff" stroke-width="3"/><circle cx="529.5" cy="21.5" r="7.5" fill="#FF6E31"/><circle cx="405.5" cy="213.5" r="7.5" fill="#FF6E31"/><circle cx="214.5" cy="370.5" r="7.5" fill="#FF6E31"/><circle cx="320.5" cy="592.5" r="7.5" fill="#FF6E31"/><circle cx="462.5" cy="668.5" r="7.5" fill="#FF6E31"/><circle cx="540.5" cy="820.5" r="7.5" fill="#FF6E31"/><circle cx="328.5" cy="1025.5" r="7.5" fill="#FF6E31"/><circle cx="115.5" cy="1040.5" r="7.5" fill="#FF6E31"/><path d="M539.88 1.994v5.148l5.112-5.148h1.8l-5.616 5.598L546.972 14h-1.836l-4.914-5.508-.342.342V14h-1.332V1.994h1.332zm8.574 4.536h1.296v4.932l5.112-5.508V14h-1.296V9.014l-5.112 5.508V6.53zm8.86 0h1.296V14h-1.296V6.53zm-1.17-1.8a.863.863 0 01-.27-.63c0-.24.09-.45.27-.63.18-.18.39-.27.63-.27s.45.09.63.27c.18.18.27.39.27.63s-.09.45-.27.63c-.18.18-.39.27-.63.27s-.45-.09-.63-.27zm2.376 0a.863.863 0 01-.27-.63c0-.24.09-.45.27-.63.18-.18.39-.27.63-.27s.45.09.63.27c.18.18.27.39.27.63s-.09.45-.27.63c-.18.18-.39.27-.63.27s-.45-.09-.63-.27zm2.538 1.8h2.826c.684 0 1.206.144 1.566.432.432.348.648.816.648 1.404 0 .648-.27 1.146-.81 1.494.372.096.684.264.936.504.396.384.594.864.594 1.44 0 .72-.258 1.284-.774 1.692-.444.336-1.032.504-1.764.504h-3.222V6.53zm1.296 3.042h1.368c.348 0 .624-.072.828-.216.24-.18.36-.438.36-.774 0-.3-.12-.54-.36-.72-.18-.12-.528-.18-1.044-.18h-1.152v1.89zm0 3.276h1.602c.552 0 .942-.084 1.17-.252.288-.216.432-.492.432-.828 0-.36-.126-.642-.378-.846-.228-.18-.618-.27-1.17-.27h-1.656v2.196zM420.074 221.07v1.548c-.588-.744-1.368-1.116-2.34-1.116-.732 0-1.356.252-1.872.756-.516.492-.774 1.17-.774 2.034 0 .864.258 1.542.774 2.034a2.592 2.592 0 001.854.738c.96 0 1.764-.39 2.412-1.17v1.548c-.708.516-1.5.774-2.376.774-1.164 0-2.124-.366-2.88-1.098-.744-.744-1.116-1.68-1.116-2.808 0-1.14.378-2.082 1.134-2.826.756-.756 1.71-1.134 2.862-1.134.864 0 1.638.24 2.322.72zm2.241 6.84a.863.863 0 01-.27-.63c0-.24.09-.45.27-.63.18-.18.39-.27.63-.27s.45.09.63.27c.18.18.27.39.27.63s-.09.45-.27.63c-.18.18-.39.27-.63.27s-.45-.09-.63-.27zm8.422-11.916h8.82V228h-1.332v-10.746h-6.156V228h-1.332v-12.006zm17.912 11.106c-.744.744-1.686 1.116-2.826 1.116-1.14 0-2.088-.372-2.844-1.116-.744-.744-1.116-1.68-1.116-2.808 0-1.14.372-2.082 1.116-2.826.756-.744 1.704-1.116 2.844-1.116s2.082.372 2.826 1.116c.756.744 1.134 1.686 1.134 2.826 0 1.128-.378 2.064-1.134 2.808zm-.972-4.86c-.504-.492-1.122-.738-1.854-.738s-1.356.252-1.872.756c-.504.492-.756 1.17-.756 2.034 0 .864.258 1.542.774 2.034a2.592 2.592 0 001.854.738c.72 0 1.338-.246 1.854-.738s.774-1.17.774-2.034c0-.876-.258-1.56-.774-2.052zm4.634-1.71h5.256v6.282h1.116v3.168h-1.188V228h-5.688v1.98h-1.188v-3.168c.624-.012 1.086-.336 1.386-.972.204-.42.306-1.08.306-1.98v-3.33zm3.96 6.282v-5.094h-2.664v2.808c0 .996-.3 1.758-.9 2.286h3.564zm10.097.288c-.744.744-1.686 1.116-2.826 1.116-1.14 0-2.088-.372-2.844-1.116-.744-.744-1.116-1.68-1.116-2.808 0-1.14.372-2.082 1.116-2.826.756-.744 1.704-1.116 2.844-1.116s2.082.372 2.826 1.116c.756.744 1.134 1.686 1.134 2.826 0 1.128-.378 2.064-1.134 2.808zm-.972-4.86c-.504-.492-1.122-.738-1.854-.738s-1.356.252-1.872.756c-.504.492-.756 1.17-.756 2.034 0 .864.258 1.542.774 2.034a2.592 2.592 0 001.854.738c.72 0 1.338-.246 1.854-.738s.774-1.17.774-2.034c0-.876-.258-1.56-.774-2.052zm9.854-6.84h1.44c-.132.444-.36.822-.684 1.134-.312.3-.6.504-.864.612a5.696 5.696 0 01-.9.288c-.06.012-.204.048-.432.108-.228.048-.402.09-.522.126l-.468.144c-.192.06-.366.132-.522.216-.156.084-.3.174-.432.27-.456.348-.828.834-1.116 1.458a5.157 5.157 0 00-.45 1.962h.036c.54-.912 1.446-1.368 2.718-1.368 1.116 0 2.04.378 2.772 1.134.744.756 1.116 1.692 1.116 2.808 0 1.128-.378 2.064-1.134 2.808-.756.744-1.74 1.116-2.952 1.116-1.044 0-1.902-.312-2.574-.936-.84-.768-1.26-2.052-1.26-3.852 0-3.132.708-5.184 2.124-6.156.108-.072.222-.138.342-.198.12-.072.246-.132.378-.18.144-.06.264-.108.36-.144.096-.048.228-.09.396-.126.18-.048.3-.078.36-.09.072-.024.204-.054.396-.09l.378-.09c.48-.108.828-.234 1.044-.378.216-.156.366-.348.45-.576zm-.414 6.84c-.504-.492-1.122-.738-1.854-.738s-1.356.252-1.872.756c-.504.492-.756 1.17-.756 2.034 0 .864.258 1.542.774 2.034a2.592 2.592 0 001.854.738c.72 0 1.338-.246 1.854-.738s.774-1.17.774-2.034c0-.876-.258-1.56-.774-2.052zm10.411 4.86c-.744.744-1.686 1.116-2.826 1.116-1.14 0-2.088-.372-2.844-1.116-.744-.744-1.116-1.68-1.116-2.808 0-1.14.372-2.082 1.116-2.826.756-.744 1.704-1.116 2.844-1.116s2.082.372 2.826 1.116c.756.744 1.134 1.686 1.134 2.826 0 1.128-.378 2.064-1.134 2.808zm-.972-4.86c-.504-.492-1.122-.738-1.854-.738s-1.356.252-1.872.756c-.504.492-.756 1.17-.756 2.034 0 .864.258 1.542.774 2.034a2.592 2.592 0 001.854.738c.72 0 1.338-.246 1.854-.738s.774-1.17.774-2.034c0-.876-.258-1.56-.774-2.052zm4.094-1.71h2.826c.684 0 1.206.144 1.566.432.432.348.648.816.648 1.404 0 .648-.27 1.146-.81 1.494.372.096.684.264.936.504.396.384.594.864.594 1.44 0 .72-.258 1.284-.774 1.692-.444.336-1.032.504-1.764.504h-3.222v-7.47zm1.296 3.042h1.368c.348 0 .624-.072.828-.216.24-.18.36-.438.36-.774 0-.3-.12-.54-.36-.72-.18-.12-.528-.18-1.044-.18h-1.152v1.89zm0 3.276h1.602c.552 0 .942-.084 1.17-.252.288-.216.432-.492.432-.828 0-.36-.126-.642-.378-.846-.228-.18-.618-.27-1.17-.27h-1.656v2.196zm11.982-1.35l1.08.594c-.252.48-.558.882-.918 1.206-.684.612-1.512.918-2.484.918-1.008 0-1.878-.324-2.61-.972-.72-.66-1.08-1.638-1.08-2.934 0-1.14.324-2.082.972-2.826.66-.756 1.542-1.134 2.646-1.134 1.248 0 2.19.456 2.826 1.368.504.72.738 1.656.702 2.808h-5.814c.012.756.246 1.368.702 1.836a2.247 2.247 0 001.674.702c.588 0 1.098-.18 1.53-.54a2.94 2.94 0 00.774-1.026zm-4.59-2.052h4.392c-.108-.588-.366-1.056-.774-1.404-.396-.36-.87-.54-1.422-.54-.54 0-1.02.186-1.44.558-.408.36-.66.822-.756 1.386zm7.712 4.554v-7.47h1.296v6.282h3.348v-6.282h1.296v6.282h1.224v3.168h-1.188V228h-5.976zm8.525 0v-7.47h1.296v2.862h1.332c1.032 0 1.788.246 2.268.738.384.384.576.906.576 1.566 0 .696-.222 1.254-.666 1.674-.444.42-1.176.63-2.196.63h-2.61zm1.296-1.152h1.206c.54 0 .924-.066 1.152-.198.324-.216.486-.534.486-.954 0-.432-.156-.744-.468-.936-.216-.144-.6-.216-1.152-.216h-1.224v2.304zM91.224 355.53h2.826c.684 0 1.206.144 1.566.432.432.348.648.816.648 1.404 0 .648-.27 1.146-.81 1.494.372.096.684.264.936.504.396.384.594.864.594 1.44 0 .72-.258 1.284-.774 1.692-.444.336-1.032.504-1.764.504h-3.222v-7.47zm1.296 3.042h1.368c.348 0 .624-.072.828-.216.24-.18.36-.438.36-.774 0-.3-.12-.54-.36-.72-.18-.12-.528-.18-1.044-.18H92.52v1.89zm0 3.276h1.602c.552 0 .942-.084 1.17-.252.288-.216.432-.492.432-.828 0-.36-.126-.642-.378-.846-.228-.18-.618-.27-1.17-.27H92.52v2.196zm12.756.252c-.744.744-1.686 1.116-2.826 1.116-1.14 0-2.088-.372-2.844-1.116-.744-.744-1.116-1.68-1.116-2.808 0-1.14.372-2.082 1.116-2.826.756-.744 1.704-1.116 2.844-1.116s2.082.372 2.826 1.116c.756.744 1.134 1.686 1.134 2.826 0 1.128-.378 2.064-1.134 2.808zm-.972-4.86c-.504-.492-1.122-.738-1.854-.738s-1.356.252-1.872.756c-.504.492-.756 1.17-.756 2.034 0 .864.258 1.542.774 2.034a2.592 2.592 0 001.854.738c.72 0 1.338-.246 1.854-.738s.774-1.17.774-2.034c0-.876-.258-1.56-.774-2.052zm4.634-1.71h5.256v6.282h1.116v3.168h-1.188V363h-5.688v1.98h-1.188v-3.168c.624-.012 1.086-.336 1.386-.972.204-.42.306-1.08.306-1.98v-3.33zm3.96 6.282v-5.094h-2.664v2.808c0 .996-.3 1.758-.9 2.286h3.564zm10.097.288c-.744.744-1.686 1.116-2.826 1.116-1.14 0-2.088-.372-2.844-1.116-.744-.744-1.116-1.68-1.116-2.808 0-1.14.372-2.082 1.116-2.826.756-.744 1.704-1.116 2.844-1.116s2.082.372 2.826 1.116c.756.744 1.134 1.686 1.134 2.826 0 1.128-.378 2.064-1.134 2.808zm-.972-4.86c-.504-.492-1.122-.738-1.854-.738s-1.356.252-1.872.756c-.504.492-.756 1.17-.756 2.034 0 .864.258 1.542.774 2.034a2.592 2.592 0 001.854.738c.72 0 1.338-.246 1.854-.738s.774-1.17.774-2.034c0-.876-.258-1.56-.774-2.052zm9.944-1.17v1.548c-.588-.744-1.368-1.116-2.34-1.116-.732 0-1.356.252-1.872.756-.516.492-.774 1.17-.774 2.034 0 .864.258 1.542.774 2.034a2.592 2.592 0 001.854.738c.96 0 1.764-.39 2.412-1.17v1.548c-.708.516-1.5.774-2.376.774-1.164 0-2.124-.366-2.88-1.098-.744-.744-1.116-1.68-1.116-2.808 0-1.14.378-2.082 1.134-2.826.756-.756 1.71-1.134 2.862-1.134.864 0 1.638.24 2.322.72zm2.042-.54h6.012V363h-1.296v-6.282h-3.42V363h-1.296v-7.47zm14.179 1.062v-1.062h1.296V363h-1.296v-1.044c-.648.84-1.5 1.26-2.556 1.26-1.008 0-1.866-.348-2.574-1.044-.708-.696-1.062-1.668-1.062-2.916 0-1.224.348-2.178 1.044-2.862.708-.696 1.572-1.044 2.592-1.044 1.08 0 1.932.414 2.556 1.242zm-2.412-.09c-.684 0-1.266.246-1.746.738-.468.48-.702 1.152-.702 2.016 0 .828.216 1.506.648 2.034.444.516 1.044.774 1.8.774s1.356-.27 1.8-.81c.456-.54.684-1.2.684-1.98 0-.888-.252-1.572-.756-2.052s-1.08-.72-1.728-.72zm6.703-.972h5.256v6.282h1.116v3.168h-1.188V363h-5.688v1.98h-1.188v-3.168c.624-.012 1.086-.336 1.386-.972.204-.42.306-1.08.306-1.98v-3.33zm3.96 6.282v-5.094h-2.664v2.808c0 .996-.3 1.758-.9 2.286h3.564zm8.304 1.188v-12.006h1.332v10.746h4.752v-10.746h1.332v10.746h4.752v-10.746h1.332V363h-13.5zm16.27-7.47h1.296v4.932l5.112-5.508V363h-1.296v-4.986l-5.112 5.508v-7.992zm8.859 0h6.012V363h-1.296v-6.282h-3.42V363h-1.296v-7.47zm8.456 0h1.296V363h-1.296v-7.47zm0-2.178a.884.884 0 01-.27-.648c0-.252.09-.468.27-.648.18-.18.396-.27.648-.27s.468.09.648.27c.18.18.27.396.27.648s-.09.468-.27.648a.884.884 0 01-.648.27.884.884 0 01-.648-.27zm8.64 3.366h-2.34V363h-1.296v-6.282h-2.34v-1.188h5.976v1.188zM160.224 607v-7.47h4.428v1.188h-3.132V607h-1.296zm12.048-.9c-.744.744-1.686 1.116-2.826 1.116-1.14 0-2.088-.372-2.844-1.116-.744-.744-1.116-1.68-1.116-2.808 0-1.14.372-2.082 1.116-2.826.756-.744 1.704-1.116 2.844-1.116s2.082.372 2.826 1.116c.756.744 1.134 1.686 1.134 2.826 0 1.128-.378 2.064-1.134 2.808zm-.972-4.86c-.504-.492-1.122-.738-1.854-.738s-1.356.252-1.872.756c-.504.492-.756 1.17-.756 2.034 0 .864.258 1.542.774 2.034a2.592 2.592 0 001.854.738c.72 0 1.338-.246 1.854-.738s.774-1.17.774-2.034c0-.876-.258-1.56-.774-2.052zm5.39 4.716v5.256h-1.296V599.53h1.296v1.044c.66-.816 1.512-1.224 2.556-1.224 1.116 0 1.998.396 2.646 1.188.66.78.99 1.704.99 2.772 0 1.08-.324 2.004-.972 2.772-.648.756-1.518 1.134-2.61 1.134-1.092 0-1.962-.42-2.61-1.26zm2.43.108c.732 0 1.32-.264 1.764-.792.444-.54.666-1.194.666-1.962 0-.864-.246-1.548-.738-2.052s-1.062-.756-1.71-.756c-.648 0-1.224.252-1.728.756s-.756 1.182-.756 2.034c0 .78.228 1.44.684 1.98.468.528 1.074.792 1.818.792zm11.473-5.472v-1.062h1.296V607h-1.296v-1.044c-.648.84-1.5 1.26-2.556 1.26-1.008 0-1.866-.348-2.574-1.044-.708-.696-1.062-1.668-1.062-2.916 0-1.224.348-2.178 1.044-2.862.708-.696 1.572-1.044 2.592-1.044 1.08 0 1.932.414 2.556 1.242zm-2.412-.09c-.684 0-1.266.246-1.746.738-.468.48-.702 1.152-.702 2.016 0 .828.216 1.506.648 2.034.444.516 1.044.774 1.8.774s1.356-.27 1.8-.81c.456-.54.684-1.2.684-1.98 0-.888-.252-1.572-.756-2.052s-1.08-.72-1.728-.72zM198.868 607v-12.006h5.472v1.26h-4.14V607h-1.332zm4.44-7.47h1.296v4.932l5.112-5.508V607h-1.296v-4.986l-5.112 5.508v-7.992zm7.995 7.47l1.8-8.046 3.096 6.084 3.024-6.084 1.8 8.046h-1.332l-.99-4.626-2.538 5.148-2.574-5.148-.954 4.626h-1.332zm17.066-12.6h1.44c-.132.444-.36.822-.684 1.134-.312.3-.6.504-.864.612a5.696 5.696 0 01-.9.288c-.06.012-.204.048-.432.108-.228.048-.402.09-.522.126l-.468.144c-.192.06-.366.132-.522.216-.156.084-.3.174-.432.27-.456.348-.828.834-1.116 1.458a5.157 5.157 0 00-.45 1.962h.036c.54-.912 1.446-1.368 2.718-1.368 1.116 0 2.04.378 2.772 1.134.744.756 1.116 1.692 1.116 2.808 0 1.128-.378 2.064-1.134 2.808-.756.744-1.74 1.116-2.952 1.116-1.044 0-1.902-.312-2.574-.936-.84-.768-1.26-2.052-1.26-3.852 0-3.132.708-5.184 2.124-6.156.108-.072.222-.138.342-.198.12-.072.246-.132.378-.18.144-.06.264-.108.36-.144.096-.048.228-.09.396-.126.18-.048.3-.078.36-.09.072-.024.204-.054.396-.09l.378-.09c.48-.108.828-.234 1.044-.378.216-.156.366-.348.45-.576zm-.414 6.84c-.504-.492-1.122-.738-1.854-.738s-1.356.252-1.872.756c-.504.492-.756 1.17-.756 2.034 0 .864.258 1.542.774 2.034a2.592 2.592 0 001.854.738c.72 0 1.338-.246 1.854-.738s.774-1.17.774-2.034c0-.876-.258-1.56-.774-2.052zm9.817-.648v-1.062h1.296V607h-1.296v-1.044c-.648.84-1.5 1.26-2.556 1.26-1.008 0-1.866-.348-2.574-1.044-.708-.696-1.062-1.668-1.062-2.916 0-1.224.348-2.178 1.044-2.862.708-.696 1.572-1.044 2.592-1.044 1.08 0 1.932.414 2.556 1.242zm-2.412-.09c-.684 0-1.266.246-1.746.738-.468.48-.702 1.152-.702 2.016 0 .828.216 1.506.648 2.034.444.516 1.044.774 1.8.774s1.356-.27 1.8-.81c.456-.54.684-1.2.684-1.98 0-.888-.252-1.572-.756-2.052s-1.08-.72-1.728-.72zm12.146-6.714l1.134.522c-.384 1.032-.66 1.926-.828 2.682-.36 1.476-.54 3.15-.54 5.022 0 1.872.18 3.546.54 5.022.168.756.444 1.65.828 2.682l-1.134.522a30.822 30.822 0 01-.882-2.7c-.456-1.62-.684-3.462-.684-5.526 0-2.064.228-3.906.684-5.526.252-.912.546-1.812.882-2.7zM254.579 607v-10.746h-2.016l.702-1.26h2.646V607h-1.332zm13.29-12.672v9.486h1.476v1.224h-1.476V607h-1.332v-1.962h-6.156l7.488-10.71zm-5.13 9.486h3.798v-5.418l-3.798 5.418zm11.689 3.474l-1.008-.738 2.754-3.834a3.563 3.563 0 01-1.062.162c-1.14 0-2.076-.378-2.808-1.134-.72-.756-1.08-1.698-1.08-2.826 0-1.2.384-2.184 1.152-2.952.78-.78 1.77-1.17 2.97-1.17.888 0 1.656.216 2.304.648.66.42 1.134.936 1.422 1.548.288.6.432 1.23.432 1.89 0 .924-.33 1.842-.99 2.754l-4.086 5.652zm.936-11.268c-.816 0-1.488.276-2.016.828-.528.54-.792 1.218-.792 2.034 0 .804.264 1.47.792 1.998.54.516 1.218.774 2.034.774.816 0 1.482-.264 1.998-.792.528-.528.792-1.188.792-1.98 0-.816-.264-1.494-.792-2.034-.516-.552-1.188-.828-2.016-.828zM285.27 607v-10.746h-2.016l.702-1.26h2.646V607h-1.332zm10.004 0l1.8-8.046 3.096 6.084 3.024-6.084 1.8 8.046h-1.332l-.99-4.626-2.538 5.148-2.574-5.148-.954 4.626h-1.332zm12.367 3.24l-1.134-.522c.384-1.032.66-1.926.828-2.682.36-1.476.54-3.15.54-5.022 0-1.872-.18-3.546-.54-5.022-.168-.756-.444-1.65-.828-2.682l1.134-.522c.336.888.63 1.788.882 2.7.456 1.62.684 3.462.684 5.526 0 2.064-.228 3.906-.684 5.526a30.822 30.822 0 01-.882 2.7zM471.224 651v-7.47h4.428v1.188h-3.132V651h-1.296zm12.048-.9c-.744.744-1.686 1.116-2.826 1.116-1.14 0-2.088-.372-2.844-1.116-.744-.744-1.116-1.68-1.116-2.808 0-1.14.372-2.082 1.116-2.826.756-.744 1.704-1.116 2.844-1.116s2.082.372 2.826 1.116c.756.744 1.134 1.686 1.134 2.826 0 1.128-.378 2.064-1.134 2.808zm-.972-4.86c-.504-.492-1.122-.738-1.854-.738s-1.356.252-1.872.756c-.504.492-.756 1.17-.756 2.034 0 .864.258 1.542.774 2.034a2.592 2.592 0 001.854.738c.72 0 1.338-.246 1.854-.738s.774-1.17.774-2.034c0-.876-.258-1.56-.774-2.052zm5.39 4.716v5.256h-1.296V643.53h1.296v1.044c.66-.816 1.512-1.224 2.556-1.224 1.116 0 1.998.396 2.646 1.188.66.78.99 1.704.99 2.772 0 1.08-.324 2.004-.972 2.772-.648.756-1.518 1.134-2.61 1.134-1.092 0-1.962-.42-2.61-1.26zm2.43.108c.732 0 1.32-.264 1.764-.792.444-.54.666-1.194.666-1.962 0-.864-.246-1.548-.738-2.052s-1.062-.756-1.71-.756c-.648 0-1.224.252-1.728.756s-.756 1.182-.756 2.034c0 .78.228 1.44.684 1.98.468.528 1.074.792 1.818.792zm11.473-5.472v-1.062h1.296V651h-1.296v-1.044c-.648.84-1.5 1.26-2.556 1.26-1.008 0-1.866-.348-2.574-1.044-.708-.696-1.062-1.668-1.062-2.916 0-1.224.348-2.178 1.044-2.862.708-.696 1.572-1.044 2.592-1.044 1.08 0 1.932.414 2.556 1.242zm-2.412-.09c-.684 0-1.266.246-1.746.738-.468.48-.702 1.152-.702 2.016 0 .828.216 1.506.648 2.034.444.516 1.044.774 1.8.774s1.356-.27 1.8-.81c.456-.54.684-1.2.684-1.98 0-.888-.252-1.572-.756-2.052s-1.08-.72-1.728-.72zm10.687-5.508h2.16c1.2 0 2.118.252 2.754.756.72.552 1.08 1.38 1.08 2.484 0 1.032-.396 1.818-1.188 2.358.768.192 1.338.582 1.71 1.17a3.28 3.28 0 01.576 1.854c0 .54-.12 1.038-.36 1.494a3.2 3.2 0 01-.864 1.098c-.672.528-1.632.792-2.88.792h-2.988v-12.006zm1.332 1.26v4.014h1.008c.18 0 .354-.006.522-.018.168-.024.366-.072.594-.144a2.11 2.11 0 00.612-.324c.18-.132.33-.33.45-.594.12-.264.18-.57.18-.918 0-.372-.072-.69-.216-.954-.144-.276-.306-.48-.486-.612a2.026 2.026 0 00-.648-.306 3.425 3.425 0 00-.576-.126 4.372 4.372 0 00-.396-.018H511.2zm0 5.202v4.284h1.53c.972 0 1.674-.168 2.106-.504.528-.384.792-.936.792-1.656 0-.804-.342-1.392-1.026-1.764-.432-.24-1.11-.36-2.034-.36H511.2zm13.433 3.042l1.08.594c-.252.48-.558.882-.918 1.206-.684.612-1.512.918-2.484.918-1.008 0-1.878-.324-2.61-.972-.72-.66-1.08-1.638-1.08-2.934 0-1.14.324-2.082.972-2.826.66-.756 1.542-1.134 2.646-1.134 1.248 0 2.19.456 2.826 1.368.504.72.738 1.656.702 2.808h-5.814c.012.756.246 1.368.702 1.836a2.247 2.247 0 001.674.702c.588 0 1.098-.18 1.53-.54a2.94 2.94 0 00.774-1.026zm-4.59-2.052h4.392c-.108-.588-.366-1.056-.774-1.404-.396-.36-.87-.54-1.422-.54-.54 0-1.02.186-1.44.558-.408.36-.66.822-.756 1.386zm13.364-2.916V651h-1.296v-6.282h-2.664v3.366c0 .972-.192 1.692-.576 2.16-.432.528-1.032.792-1.8.792-.096 0-.228-.012-.396-.036v-1.188c.12.024.216.036.288.036.42 0 .732-.162.936-.486.168-.264.252-.69.252-1.278v-4.554h5.256zm2.452 0h1.296v4.932l5.112-5.508V651h-1.296v-4.986l-5.112 5.508v-7.992zm8.859 0h1.296v3.06l3.024-3.06h1.584l-3.24 3.33 3.636 4.14h-1.692l-2.916-3.276-.396.378V651h-1.296v-7.47zm7.594 0h1.296v4.932l5.112-5.508V651h-1.296v-4.986l-5.112 5.508v-7.992zm8.859 0h1.296v4.932l5.112-5.508V651h-1.296v-4.986l-5.112 5.508v-7.992zm.648-3.222l1.08-.414c.216.72.726 1.08 1.53 1.08s1.314-.36 1.53-1.08l1.08.414c-.192.54-.522.966-.99 1.278-.456.312-.996.468-1.62.468-.624 0-1.17-.156-1.638-.468a2.533 2.533 0 01-.972-1.278zm12.737-1.314h2.16c1.2 0 2.118.252 2.754.756.72.552 1.08 1.38 1.08 2.484 0 1.032-.396 1.818-1.188 2.358.768.192 1.338.582 1.71 1.17a3.28 3.28 0 01.576 1.854c0 .54-.12 1.038-.36 1.494a3.2 3.2 0 01-.864 1.098c-.672.528-1.632.792-2.88.792h-2.988v-12.006zm1.332 1.26v4.014h1.008c.18 0 .354-.006.522-.018.168-.024.366-.072.594-.144a2.11 2.11 0 00.612-.324c.18-.132.33-.33.45-.594.12-.264.18-.57.18-.918 0-.372-.072-.69-.216-.954-.144-.276-.306-.48-.486-.612a2.026 2.026 0 00-.648-.306 3.425 3.425 0 00-.576-.126 4.372 4.372 0 00-.396-.018h-1.044zm0 5.202v4.284h1.53c.972 0 1.674-.168 2.106-.504.528-.384.792-.936.792-1.656 0-.804-.342-1.392-1.026-1.764-.432-.24-1.11-.36-2.034-.36h-1.368zm13.433 3.042l1.08.594c-.252.48-.558.882-.918 1.206-.684.612-1.512.918-2.484.918-1.008 0-1.878-.324-2.61-.972-.72-.66-1.08-1.638-1.08-2.934 0-1.14.324-2.082.972-2.826.66-.756 1.542-1.134 2.646-1.134 1.248 0 2.19.456 2.826 1.368.504.72.738 1.656.702 2.808h-5.814c.012.756.246 1.368.702 1.836a2.247 2.247 0 001.674.702c.588 0 1.098-.18 1.53-.54a2.94 2.94 0 00.774-1.026zm-4.59-2.052h4.392c-.108-.588-.366-1.056-.774-1.404-.396-.36-.87-.54-1.422-.54-.54 0-1.02.186-1.44.558-.408.36-.66.822-.756 1.386zm9.008 3.51v5.256h-1.296V643.53h1.296v1.044c.66-.816 1.512-1.224 2.556-1.224 1.116 0 1.998.396 2.646 1.188.66.78.99 1.704.99 2.772 0 1.08-.324 2.004-.972 2.772-.648.756-1.518 1.134-2.61 1.134-1.092 0-1.962-.42-2.61-1.26zm2.43.108c.732 0 1.32-.264 1.764-.792.444-.54.666-1.194.666-1.962 0-.864-.246-1.548-.738-2.052s-1.062-.756-1.71-.756c-.648 0-1.224.252-1.728.756s-.756 1.182-.756 2.034c0 .78.228 1.44.684 1.98.468.528 1.074.792 1.818.792zm4.668.936l3.186-3.996-2.718-3.474h1.584l1.926 2.538 1.962-2.538h1.584l-2.736 3.492 3.096 3.978h-1.584l-2.358-3.042-2.358 3.042h-1.584zm15.237-13.212l1.134.522c-.384 1.032-.66 1.926-.828 2.682-.36 1.476-.54 3.15-.54 5.022 0 1.872.18 3.546.54 5.022.168.756.444 1.65.828 2.682l-1.134.522a30.822 30.822 0 01-.882-2.7c-.456-1.62-.684-3.462-.684-5.526 0-2.064.228-3.906.684-5.526.252-.912.546-1.812.882-2.7zM623.147 651v-10.746h-2.016l.702-1.26h2.646V651h-1.332zm14.065-12.006v1.224h-3.852l-.774 2.592c.204-.048.456-.072.756-.072 1.188 0 2.142.396 2.862 1.188.732.792 1.098 1.782 1.098 2.97 0 1.296-.426 2.34-1.278 3.132-.84.792-1.872 1.188-3.096 1.188-1.032 0-1.926-.312-2.682-.936a4.972 4.972 0 01-1.044-1.224l1.062-.756c.18.36.45.684.81.972.588.48 1.236.72 1.944.72.84 0 1.542-.3 2.106-.9.564-.6.846-1.326.846-2.178 0-.864-.282-1.572-.846-2.124-.552-.552-1.254-.828-2.106-.828-.756 0-1.53.276-2.322.828l1.746-5.796h4.77zm5.784 12.294l-1.008-.738 2.754-3.834a3.563 3.563 0 01-1.062.162c-1.14 0-2.076-.378-2.808-1.134-.72-.756-1.08-1.698-1.08-2.826 0-1.2.384-2.184 1.152-2.952.78-.78 1.77-1.17 2.97-1.17.888 0 1.656.216 2.304.648.66.42 1.134.936 1.422 1.548.288.6.432 1.23.432 1.89 0 .924-.33 1.842-.99 2.754l-4.086 5.652zm.936-11.268c-.816 0-1.488.276-2.016.828-.528.54-.792 1.218-.792 2.034 0 .804.264 1.47.792 1.998.54.516 1.218.774 2.034.774.816 0 1.482-.264 1.998-.792.528-.528.792-1.188.792-1.98 0-.816-.264-1.494-.792-2.034-.516-.552-1.188-.828-2.016-.828zm12.085 4.734c1.212.54 1.818 1.518 1.818 2.934 0 .996-.324 1.836-.972 2.52-.636.672-1.536 1.008-2.7 1.008-1.164 0-2.07-.336-2.718-1.008-.636-.684-.954-1.524-.954-2.52 0-1.416.606-2.394 1.818-2.934-.972-.564-1.458-1.44-1.458-2.628 0-.912.294-1.692.882-2.34.588-.66 1.398-.99 2.43-.99 1.032 0 1.842.33 2.43.99.588.648.882 1.428.882 2.34 0 1.188-.486 2.064-1.458 2.628zm-3.33-1.134c.396.396.888.594 1.476.594s1.074-.198 1.458-.594c.396-.396.594-.888.594-1.476 0-.636-.204-1.146-.612-1.53a1.961 1.961 0 00-1.44-.594c-.564 0-1.05.198-1.458.594-.396.384-.594.894-.594 1.53 0 .588.192 1.08.576 1.476zm-.216 5.724c.432.432.996.648 1.692.648s1.26-.216 1.692-.648c.432-.444.648-1.008.648-1.692 0-.672-.222-1.218-.666-1.638-.432-.432-.99-.648-1.674-.648-.684 0-1.248.216-1.692.648-.432.42-.648.966-.648 1.638 0 .684.216 1.248.648 1.692zM663.842 651l1.8-8.046 3.096 6.084 3.024-6.084 1.8 8.046h-1.332l-.99-4.626-2.538 5.148-2.574-5.148-.954 4.626h-1.332zm12.368 3.24l-1.134-.522c.384-1.032.66-1.926.828-2.682.36-1.476.54-3.15.54-5.022 0-1.872-.18-3.546-.54-5.022-.168-.756-.444-1.65-.828-2.682l1.134-.522c.336.888.63 1.788.882 2.7.456 1.62.684 3.462.684 5.526 0 2.064-.228 3.906-.684 5.526a30.822 30.822 0 01-.882 2.7zM549.224 835v-7.47h4.428v1.188h-3.132V835h-1.296zm12.048-.9c-.744.744-1.686 1.116-2.826 1.116-1.14 0-2.088-.372-2.844-1.116-.744-.744-1.116-1.68-1.116-2.808 0-1.14.372-2.082 1.116-2.826.756-.744 1.704-1.116 2.844-1.116s2.082.372 2.826 1.116c.756.744 1.134 1.686 1.134 2.826 0 1.128-.378 2.064-1.134 2.808zm-.972-4.86c-.504-.492-1.122-.738-1.854-.738s-1.356.252-1.872.756c-.504.492-.756 1.17-.756 2.034 0 .864.258 1.542.774 2.034a2.592 2.592 0 001.854.738c.72 0 1.338-.246 1.854-.738s.774-1.17.774-2.034c0-.876-.258-1.56-.774-2.052zm5.39 4.716v5.256h-1.296V827.53h1.296v1.044c.66-.816 1.512-1.224 2.556-1.224 1.116 0 1.998.396 2.646 1.188.66.78.99 1.704.99 2.772 0 1.08-.324 2.004-.972 2.772-.648.756-1.518 1.134-2.61 1.134-1.092 0-1.962-.42-2.61-1.26zm2.43.108c.732 0 1.32-.264 1.764-.792.444-.54.666-1.194.666-1.962 0-.864-.246-1.548-.738-2.052s-1.062-.756-1.71-.756c-.648 0-1.224.252-1.728.756s-.756 1.182-.756 2.034c0 .78.228 1.44.684 1.98.468.528 1.074.792 1.818.792zm11.473-5.472v-1.062h1.296V835h-1.296v-1.044c-.648.84-1.5 1.26-2.556 1.26-1.008 0-1.866-.348-2.574-1.044-.708-.696-1.062-1.668-1.062-2.916 0-1.224.348-2.178 1.044-2.862.708-.696 1.572-1.044 2.592-1.044 1.08 0 1.932.414 2.556 1.242zm-2.412-.09c-.684 0-1.266.246-1.746.738-.468.48-.702 1.152-.702 2.016 0 .828.216 1.506.648 2.034.444.516 1.044.774 1.8.774s1.356-.27 1.8-.81c.456-.54.684-1.2.684-1.98 0-.888-.252-1.572-.756-2.052s-1.08-.72-1.728-.72zm16.555-4.248h-2.916V835h-1.332v-10.746h-2.916v-1.26h7.164v1.26zm5.434 8.244l1.08.594c-.252.48-.558.882-.918 1.206-.684.612-1.512.918-2.484.918-1.008 0-1.878-.324-2.61-.972-.72-.66-1.08-1.638-1.08-2.934 0-1.14.324-2.082.972-2.826.66-.756 1.542-1.134 2.646-1.134 1.248 0 2.19.456 2.826 1.368.504.72.738 1.656.702 2.808h-5.814c.012.756.246 1.368.702 1.836a2.247 2.247 0 001.674.702c.588 0 1.098-.18 1.53-.54a2.94 2.94 0 00.774-1.026zm-4.59-2.052h4.392c-.108-.588-.366-1.056-.774-1.404-.396-.36-.87-.54-1.422-.54-.54 0-1.02.186-1.44.558-.408.36-.66.822-.756 1.386zm6.848 4.554l1.8-8.046 3.096 6.084 3.024-6.084 1.8 8.046h-1.332l-.99-4.626-2.538 5.148-2.574-5.148-.954 4.626h-1.332zm11.306 0v-7.47h1.296v3.06h3.528v-3.06h1.296V835h-1.296v-3.222h-3.528V835h-1.296zm14.284-6.408v-1.062h1.296V835h-1.296v-1.044c-.648.84-1.5 1.26-2.556 1.26-1.008 0-1.866-.348-2.574-1.044-.708-.696-1.062-1.668-1.062-2.916 0-1.224.348-2.178 1.044-2.862.708-.696 1.572-1.044 2.592-1.044 1.08 0 1.932.414 2.556 1.242zm-2.412-.09c-.684 0-1.266.246-1.746.738-.468.48-.702 1.152-.702 2.016 0 .828.216 1.506.648 2.034.444.516 1.044.774 1.8.774s1.356-.27 1.8-.81c.456-.54.684-1.2.684-1.98 0-.888-.252-1.572-.756-2.052s-1.08-.72-1.728-.72zm11.059.216h-2.34V835h-1.296v-6.282h-2.34v-1.188h5.976v1.188zm1.362-1.188h1.296v4.932l5.112-5.508V835h-1.296v-4.986l-5.112 5.508v-7.992zm8.859 0h1.296v3.06l3.024-3.06h1.584l-3.24 3.33 3.636 4.14h-1.692l-2.916-3.276-.396.378V835h-1.296v-7.47zm13.577-5.742l1.134.522c-.384 1.032-.66 1.926-.828 2.682-.36 1.476-.54 3.15-.54 5.022 0 1.872.18 3.546.54 5.022.168.756.444 1.65.828 2.682l-1.134.522a30.822 30.822 0 01-.882-2.7c-.456-1.62-.684-3.462-.684-5.526 0-2.064.228-3.906.684-5.526.252-.912.546-1.812.882-2.7zM666.536 835v-10.746h-2.016l.702-1.26h2.646V835h-1.332zm8.323-9.036h-1.332a3.682 3.682 0 01.558-1.764c.6-.936 1.53-1.404 2.79-1.404 1.068 0 1.896.318 2.484.954.6.636.9 1.398.9 2.286 0 1.26-.516 2.148-1.548 2.664.156.06.306.144.45.252.156.096.342.252.558.468.216.216.39.516.522.9.132.372.198.798.198 1.278 0 1.092-.354 1.968-1.062 2.628-.696.66-1.572.99-2.628.99a4.168 4.168 0 01-1.98-.486c-.612-.336-1.068-.864-1.368-1.584a3.864 3.864 0 01-.27-1.26h1.332c.06.492.204.894.432 1.206.408.6 1.026.9 1.854.9.66 0 1.218-.234 1.674-.702a2.42 2.42 0 00.684-1.728c0-.984-.396-1.656-1.188-2.016-.396-.192-.852-.276-1.368-.252v-1.188c.516.036.972-.048 1.368-.252.672-.348 1.008-.942 1.008-1.782 0-.588-.168-1.074-.504-1.458-.336-.396-.852-.594-1.548-.594-.672 0-1.188.228-1.548.684-.276.36-.432.78-.468 1.26zm15.198-3.636v9.486h1.476v1.224h-1.476V835h-1.332v-1.962h-6.156l7.488-10.71zm-5.13 9.486h3.798v-5.418l-3.798 5.418zm10.392-5.85h-1.332a3.682 3.682 0 01.558-1.764c.6-.936 1.53-1.404 2.79-1.404 1.068 0 1.896.318 2.484.954.6.636.9 1.398.9 2.286 0 1.26-.516 2.148-1.548 2.664.156.06.306.144.45.252.156.096.342.252.558.468.216.216.39.516.522.9.132.372.198.798.198 1.278 0 1.092-.354 1.968-1.062 2.628-.696.66-1.572.99-2.628.99a4.168 4.168 0 01-1.98-.486c-.612-.336-1.068-.864-1.368-1.584a3.864 3.864 0 01-.27-1.26h1.332c.06.492.204.894.432 1.206.408.6 1.026.9 1.854.9.66 0 1.218-.234 1.674-.702a2.42 2.42 0 00.684-1.728c0-.984-.396-1.656-1.188-2.016-.396-.192-.852-.276-1.368-.252v-1.188c.516.036.972-.048 1.368-.252.672-.348 1.008-.942 1.008-1.782 0-.588-.168-1.074-.504-1.458-.336-.396-.852-.594-1.548-.594-.672 0-1.188.228-1.548.684-.276.36-.432.78-.468 1.26zM707.231 835l1.8-8.046 3.096 6.084 3.024-6.084 1.8 8.046h-1.332l-.99-4.626-2.538 5.148-2.574-5.148-.954 4.626h-1.332zm12.368 3.24l-1.134-.522c.384-1.032.66-1.926.828-2.682.36-1.476.54-3.15.54-5.022 0-1.872-.18-3.546-.54-5.022-.168-.756-.444-1.65-.828-2.682l1.134-.522c.336.888.63 1.788.882 2.7.456 1.62.684 3.462.684 5.526 0 2.064-.228 3.906-.684 5.526a30.822 30.822 0 01-.882 2.7zM233.36 1018l1.8-8.05 3.096 6.09 3.024-6.09 1.8 8.05h-1.332l-.99-4.63-2.538 5.15-2.574-5.15-.954 4.63h-1.332zm11.503-.09a.863.863 0 01-.27-.63c0-.24.09-.45.27-.63.18-.18.39-.27.63-.27s.45.09.63.27c.18.18.27.39.27.63s-.09.45-.27.63c-.18.18-.39.27-.63.27s-.45-.09-.63-.27zm8.423-11.92h2.16c1.2 0 2.118.26 2.754.76.72.55 1.08 1.38 1.08 2.48 0 1.04-.396 1.82-1.188 2.36.768.19 1.338.58 1.71 1.17.384.58.576 1.2.576 1.86 0 .54-.12 1.03-.36 1.49-.228.46-.516.82-.864 1.1-.672.53-1.632.79-2.88.79h-2.988v-12.01zm1.332 1.26v4.02h1.008c.18 0 .354-.01.522-.02.168-.02.366-.07.594-.14.24-.09.444-.2.612-.33.18-.13.33-.33.45-.59.12-.27.18-.57.18-.92 0-.37-.072-.69-.216-.95a1.813 1.813 0 00-.486-.62 2.02 2.02 0 00-.648-.3c-.252-.07-.444-.12-.576-.13-.132-.01-.264-.02-.396-.02h-1.044zm0 5.21v4.28h1.53c.972 0 1.674-.17 2.106-.5.528-.39.792-.94.792-1.66 0-.8-.342-1.39-1.026-1.76-.432-.24-1.11-.36-2.034-.36h-1.368zm14.207 4.64c-.744.74-1.686 1.12-2.826 1.12-1.14 0-2.088-.38-2.844-1.12-.744-.74-1.116-1.68-1.116-2.81 0-1.14.372-2.08 1.116-2.82.756-.75 1.704-1.12 2.844-1.12s2.082.37 2.826 1.12c.756.74 1.134 1.68 1.134 2.82 0 1.13-.378 2.07-1.134 2.81zm-.972-4.86c-.504-.49-1.122-.74-1.854-.74s-1.356.25-1.872.76c-.504.49-.756 1.17-.756 2.03 0 .87.258 1.54.774 2.04.516.49 1.134.73 1.854.73.72 0 1.338-.24 1.854-.73.516-.5.774-1.17.774-2.04 0-.87-.258-1.56-.774-2.05zm9.746-1.71v7.47h-1.296v-6.28h-2.664v3.36c0 .98-.192 1.7-.576 2.16-.432.53-1.032.8-1.8.8-.096 0-.228-.02-.396-.04v-1.19c.12.03.216.04.288.04.42 0 .732-.16.936-.49.168-.26.252-.69.252-1.28v-4.55h5.256zm8.769 6.57c-.744.74-1.686 1.12-2.826 1.12-1.14 0-2.088-.38-2.844-1.12-.744-.74-1.116-1.68-1.116-2.81 0-1.14.372-2.08 1.116-2.82.756-.75 1.704-1.12 2.844-1.12s2.082.37 2.826 1.12c.756.74 1.134 1.68 1.134 2.82 0 1.13-.378 2.07-1.134 2.81zm-.972-4.86c-.504-.49-1.122-.74-1.854-.74s-1.356.25-1.872.76c-.504.49-.756 1.17-.756 2.03 0 .87.258 1.54.774 2.04.516.49 1.134.73 1.854.73.72 0 1.338-.24 1.854-.73.516-.5.774-1.17.774-2.04 0-.87-.258-1.56-.774-2.05zm4.094-1.71h2.826c.684 0 1.206.14 1.566.43.432.35.648.82.648 1.41 0 .64-.27 1.14-.81 1.49.372.1.684.26.936.5.396.39.594.87.594 1.44 0 .72-.258 1.29-.774 1.7-.444.33-1.032.5-1.764.5h-3.222v-7.47zm1.296 3.04h1.368c.348 0 .624-.07.828-.21.24-.18.36-.44.36-.78 0-.3-.12-.54-.36-.72-.18-.12-.528-.18-1.044-.18h-1.152v1.89zm0 3.28h1.602c.552 0 .942-.09 1.17-.25.288-.22.432-.5.432-.83 0-.36-.126-.64-.378-.85-.228-.18-.618-.27-1.17-.27h-1.656v2.2zm11.982-1.35l1.08.59c-.252.48-.558.88-.918 1.21-.684.61-1.512.92-2.484.92-1.008 0-1.878-.33-2.61-.98-.72-.66-1.08-1.63-1.08-2.93 0-1.14.324-2.08.972-2.83.66-.75 1.542-1.13 2.646-1.13 1.248 0 2.19.46 2.826 1.37.504.72.738 1.65.702 2.81h-5.814c.012.75.246 1.36.702 1.83.456.47 1.014.7 1.674.7.588 0 1.098-.18 1.53-.54a2.9 2.9 0 00.774-1.02zm-4.59-2.05h4.392c-.108-.59-.366-1.06-.774-1.41-.396-.36-.87-.54-1.422-.54-.54 0-1.02.19-1.44.56-.408.36-.66.82-.756 1.39zm7.712 4.55v-7.47h1.296v6.28h3.348v-6.28h1.296v6.28h1.224v3.17h-1.188V1018h-5.976zm8.525 0v-7.47h1.296v2.86h1.332c1.032 0 1.788.25 2.268.74.384.38.576.91.576 1.57 0 .69-.222 1.25-.666 1.67-.444.42-1.176.63-2.196.63h-2.61zm1.296-1.15h1.206c.54 0 .924-.07 1.152-.2.324-.22.486-.53.486-.95 0-.44-.156-.75-.468-.94-.216-.14-.6-.22-1.152-.22h-1.224v2.31zm-235.831 4.14v5.15l5.112-5.15h1.8l-5.616 5.6 5.796 6.41h-1.836l-4.914-5.51-.342.34v5.17h-1.332v-12.01h1.332zm8.575 4.54h1.296v4.93l5.111-5.51v8.05h-1.295v-4.99l-5.112 5.51v-7.99zm8.859 0h1.296v7.47h-1.296v-7.47zm-1.17-1.8a.863.863 0 01-.27-.63c0-.24.09-.45.27-.63.18-.18.39-.27.63-.27s.45.09.63.27c.18.18.27.39.27.63s-.09.45-.27.63c-.18.18-.39.27-.63.27s-.45-.09-.63-.27zm2.376 0a.863.863 0 01-.27-.63c0-.24.09-.45.27-.63.18-.18.39-.27.63-.27s.45.09.63.27c.18.18.27.39.27.63s-.09.45-.27.63c-.18.18-.39.27-.63.27s-.45-.09-.63-.27zm2.538 1.8h2.826c.684 0 1.206.14 1.566.43.432.35.648.82.648 1.41 0 .64-.27 1.14-.81 1.49.372.1.684.26.936.5.396.39.594.87.594 1.44 0 .72-.258 1.29-.774 1.7-.444.33-1.032.5-1.764.5h-3.222v-7.47zm1.296 3.04h1.368c.348 0 .624-.07.828-.21.24-.18.36-.44.36-.78 0-.3-.12-.54-.36-.72-.18-.12-.528-.18-1.044-.18h-1.152v1.89zm0 3.28h1.602c.552 0 .942-.09 1.17-.25.288-.22.432-.5.432-.83 0-.36-.126-.64-.378-.85-.228-.18-.618-.27-1.17-.27h-1.656v2.2z" fill="#F4F5F9"/></svg>