<svg width="35" height="35" fill="none" xmlns="http://www.w3.org/2000/svg"><path d="M5.127 30.83h24.746c2.827 0 5.127-2.3 5.127-5.127V9.297c0-2.827-2.3-5.127-5.127-5.127H5.127A5.133 5.133 0 000 9.297v16.406c0 2.827 2.3 5.127 5.127 5.127zM2.051 9.297A3.08 3.08 0 015.127 6.22h24.746a3.08 3.08 0 013.076 3.076v16.406a3.08 3.08 0 01-3.076 3.076H5.127a3.08 3.08 0 01-3.076-3.076V9.297z" fill="#72147E"/><path d="M12.373 10.63v13.94l12.339-7.084-12.339-6.855zm2.05 3.486l6.119 3.399-6.118 3.512v-6.911z" fill="#72147E"/></svg>